<svg width="33" height="32" viewBox="0 0 33 32" fill="none" xmlns="http://www.w3.org/2000/svg">
    <g clip-path="url(#clip0_2476_235)">
        <path d="M26.5951 15.1207L26.8441 16.3336C27.7906 20.9447 26.3569 25.723 23.0284 29.0515L17.8464 23.8694L8.7337 14.7568L3.55164 9.57475C6.8802 6.24619 11.6584 4.81256 16.2696 5.75912L17.4824 6.00806L26.5951 15.1207Z" fill="#D8DEFF"/>
        <path d="M13.287 19.3101L17.8463 23.8694L26.444 15.2719C28.3471 13.3687 29.8214 11.0808 30.7682 8.56139C31.7149 6.04197 32.1122 3.34929 31.9334 0.663809L31.9393 0.669746C29.2538 0.490936 26.5612 0.888219 24.0418 1.83497C21.5223 2.78172 19.2344 4.25606 17.3313 6.15918L8.73358 14.7568L13.2929 19.3161L13.287 19.3101Z" fill="#A0AEFF"/>
        <path d="M15.2456 24.8924L7.71611 17.3626L9.52775 15.551L17.0572 23.0808L15.2456 24.8924Z" fill="#AFBAFF"/>
        <path d="M20.6218 15.5871C22.6407 15.5871 24.2774 13.9504 24.2774 11.9315C24.2774 9.91258 22.6407 8.27592 20.6218 8.27592C18.6029 8.27592 16.9662 9.91258 16.9662 11.9315C16.9662 13.9504 18.6029 15.5871 20.6218 15.5871Z" fill="#FFF0AD"/>
        <path d="M11.4812 26.6093C12.9947 25.0957 12.9947 22.6411 11.4812 21.1275C9.9676 19.614 7.51298 19.614 5.99941 21.1275C5.97279 21.1541 5.94673 21.1811 5.92104 21.2084C3.31529 23.9184 3.80991 28.6973 3.86066 28.748C3.89441 28.7818 8.68954 29.2931 11.3999 26.688C11.4273 26.6622 11.4544 26.636 11.4812 26.6093Z" fill="#FE9901"/>
        <path d="M11.4812 23.8685C12.238 23.1116 12.238 21.8843 11.4812 21.1275C10.7243 20.3707 9.49703 20.3707 8.74022 21.1275C8.7269 21.1408 8.71384 21.1543 8.70103 21.168C7.39815 22.523 7.64547 24.9124 7.67084 24.9378C7.68772 24.9547 10.0853 25.2103 11.4405 23.9078C11.4542 23.8948 11.4678 23.8818 11.4812 23.8685Z" fill="#F9C662"/>
        <path d="M16.3416 11.9313C16.3416 13.0747 16.7869 14.1496 17.5953 14.9581C18.4038 15.7666 19.4787 16.2118 20.6221 16.2118C21.7654 16.2118 22.8403 15.7666 23.6488 14.9581C24.4573 14.1496 24.9025 13.0747 24.9025 11.9313C24.9025 10.7879 24.4572 9.71311 23.6488 8.90455C22.8403 8.09605 21.7654 7.65086 20.6221 7.65086C19.4787 7.65086 18.4038 8.09618 17.5953 8.90455C16.7869 9.71305 16.3416 10.7879 16.3416 11.9313ZM20.6221 8.90061C21.4316 8.90061 22.1926 9.21586 22.7651 9.7883C23.3375 10.3607 23.6527 11.1218 23.6527 11.9312C23.6527 12.7408 23.3375 13.5019 22.7651 14.0743C22.1927 14.6467 21.4316 14.9619 20.6221 14.9619C19.8126 14.9619 19.0515 14.6467 18.4791 14.0743C17.9066 13.5019 17.5914 12.7408 17.5914 11.9312C17.5914 11.1217 17.9066 10.3607 18.4791 9.78824C19.0514 9.2158 19.8126 8.90061 20.6221 8.90061Z" fill="#0D1533"/>
        <path d="M27.2729 15.3149C29.1074 13.3729 30.5235 11.0748 31.4334 8.56307C32.3433 6.05136 32.7277 3.37954 32.5628 0.713187C32.569 0.624277 32.5561 0.53507 32.525 0.45155C32.4939 0.36803 32.4453 0.292128 32.3824 0.228937L32.3765 0.222937C32.3133 0.159284 32.2371 0.110019 32.1531 0.0785021C32.0691 0.0469855 31.9792 0.0339593 31.8897 0.0403124C26.4935 -0.294063 21.2084 1.62694 17.2882 5.33019L16.3953 5.14687C11.5638 4.15506 6.59731 5.64531 3.10975 9.13281C2.99258 9.25002 2.92676 9.40896 2.92676 9.57469C2.92676 9.74042 2.99258 9.89936 3.10975 10.0166L8.64419 15.551L7.27444 16.9208C7.03044 17.1648 7.03044 17.5605 7.27444 17.8046L8.83981 19.3699C8.80662 19.3693 8.77362 19.3675 8.74031 19.3675C7.53794 19.3675 6.40762 19.8357 5.55781 20.6855C5.52706 20.7162 5.497 20.7474 5.47056 20.7754C3.99919 22.3056 3.46437 24.405 3.27475 25.8967C3.16656 26.7479 3.15806 27.4809 3.17006 27.9458C3.19631 28.9676 3.28012 29.0513 3.419 29.1902C3.56344 29.3346 3.63587 29.4069 4.65669 29.4315C4.75094 29.4338 4.856 29.4352 4.97075 29.4352C5.42475 29.4352 6.02906 29.4125 6.70444 29.3276C8.20044 29.1398 10.3047 28.6076 11.8292 27.1422C11.8609 27.1123 11.8922 27.0819 11.9231 27.0512C12.8262 26.1479 13.2634 24.9532 13.2369 23.767L14.8042 25.3344C14.8623 25.3924 14.9312 25.4384 15.007 25.4698C15.0828 25.5013 15.1641 25.5174 15.2461 25.5174C15.3282 25.5174 15.4095 25.5013 15.4853 25.4698C15.5611 25.4384 15.63 25.3924 15.688 25.3344L17.0577 23.9646L22.5866 29.4934C22.6446 29.5515 22.7135 29.5975 22.7893 29.6289C22.8652 29.6604 22.9464 29.6765 23.0285 29.6765C23.1106 29.6765 23.1918 29.6604 23.2677 29.6289C23.3435 29.5975 23.4124 29.5515 23.4704 29.4934C26.9579 26.0059 28.4479 21.0394 27.4563 16.2079L27.2729 15.3149ZM31.3386 1.26456C31.4234 3.63037 31.0471 5.99008 30.2307 8.21219L26.2767 4.25819C26.0327 4.01425 25.6371 4.01425 25.393 4.25819C25.149 4.50219 25.149 4.89788 25.393 5.14194L29.7172 9.46619C28.8111 11.4627 27.5527 13.2797 26.0022 14.8299L17.8464 22.9858L17.5002 22.6396L9.61744 14.7568L11.3356 13.0386L14.2897 15.9928C14.3477 16.0509 14.4166 16.097 14.4924 16.1284C14.5683 16.1598 14.6495 16.1759 14.7316 16.1758C14.8137 16.1759 14.895 16.1598 14.9708 16.1284C15.0466 16.097 15.1155 16.0509 15.1735 15.9928C15.4175 15.7488 15.4175 15.3531 15.1735 15.1091L12.2193 12.1549L17.7732 6.601C19.5466 4.82752 21.6664 3.43841 24.0003 2.52028C26.3342 1.60215 28.8322 1.17469 31.3386 1.26456ZM16.144 6.37119L16.2201 6.38681L8.73375 13.8731L4.44556 9.58494C7.60387 6.70544 11.93 5.50613 16.144 6.37119ZM11.4239 22.498C11.4244 22.678 11.3877 22.8561 11.316 23.0212C11.2443 23.1862 11.1393 23.3347 11.0075 23.4573C10.2476 24.1877 8.98431 24.3408 8.2595 24.3465C8.26531 23.6393 8.41275 22.3693 9.15487 21.5974C9.27733 21.4667 9.42538 21.3626 9.58981 21.2916C9.75424 21.2206 9.93153 21.1842 10.1106 21.1847C10.283 21.1843 10.4538 21.218 10.6131 21.2839C10.7723 21.3498 10.917 21.4467 11.0386 21.5688L11.0392 21.5694L11.0399 21.5701C11.1621 21.6917 11.2589 21.8363 11.3248 21.9956C11.3907 22.1549 11.4243 22.3256 11.4239 22.498ZM11.0393 26.1675C11.0155 26.1912 10.9914 26.2146 10.9669 26.2376C9.72819 27.4282 7.97644 27.8881 6.72506 28.0641C5.762 28.1997 4.92137 28.1976 4.42887 28.1738C4.4035 27.6846 4.4 26.8374 4.54094 25.8589C4.71981 24.6174 5.18269 22.8778 6.37462 21.6381C6.39637 21.6151 6.41837 21.5922 6.44119 21.5694C6.96081 21.0498 7.62575 20.7286 8.34431 20.6419C8.32919 20.6564 8.31369 20.6704 8.29881 20.6852C8.28119 20.7028 8.26406 20.7206 8.2505 20.7349C7.62131 21.3893 7.21231 22.336 7.06787 23.4727C7.02292 23.8282 7.00462 24.1866 7.01312 24.5448C7.02562 25.0294 7.057 25.2078 7.22969 25.3805C7.40944 25.5596 7.60056 25.5807 8.06119 25.5919C8.4188 25.5999 8.77653 25.5817 9.1315 25.5376C10.2715 25.3944 11.2196 24.9867 11.8699 24.3617C11.8876 24.3449 11.9051 24.3281 11.9224 24.3109L11.9229 24.3104C11.9372 24.296 11.9508 24.2811 11.9648 24.2664C11.8799 24.9618 11.572 25.6348 11.0393 26.1675ZM15.2461 24.0088L11.9234 20.686L11.9231 20.6857L11.9227 20.6854L8.6 17.3626L9.52787 16.4347L12.8399 19.7467L12.8451 19.752L16.1739 23.0808L15.2461 24.0088ZM23.0182 28.1576L18.7301 23.8695L26.2163 16.3832L26.2319 16.4592C27.0969 20.6731 25.8977 24.9993 23.0182 28.1576Z" fill="#0D1533"/>
        <path d="M4.84531 18.6451C4.60131 18.4012 4.20562 18.4012 3.96162 18.6451L0.783121 21.8236C0.539121 22.0676 0.539059 22.4633 0.783121 22.7073C0.905184 22.8293 1.06506 22.8903 1.225 22.8903C1.38493 22.8903 1.54487 22.8293 1.66687 22.7073L4.84537 19.5289C5.08937 19.2848 5.08937 18.8892 4.84531 18.6451ZM11.9565 28.8756L9.90187 30.9302C9.65787 31.1742 9.65787 31.5699 9.90187 31.814C10.0239 31.936 10.1838 31.997 10.3437 31.997C10.5037 31.997 10.6636 31.9359 10.7856 31.814L12.8402 29.7593C13.0842 29.5153 13.0842 29.1197 12.8402 28.8756C12.5962 28.6316 12.2005 28.6316 11.9565 28.8756ZM14.1462 26.9447C13.9819 26.9447 13.8207 27.011 13.7044 27.1278C13.5876 27.2452 13.5218 27.404 13.5214 27.5696C13.5214 27.734 13.5882 27.8945 13.7044 28.0114C13.8207 28.1277 13.9819 28.1938 14.1462 28.1938C14.3106 28.1938 14.4718 28.1276 14.5881 28.0114C14.705 27.894 14.7708 27.7352 14.7711 27.5696C14.7711 27.4046 14.7049 27.244 14.5881 27.1278C14.4708 27.0107 14.3119 26.9449 14.1462 26.9447ZM16.4158 16.6105C16.2514 16.6105 16.0902 16.6768 15.974 16.7929C15.8577 16.9098 15.7909 17.071 15.7909 17.2353C15.7909 17.3997 15.8578 17.5609 15.974 17.6772C16.0915 17.7939 16.2502 17.8597 16.4158 17.8602C16.5802 17.8602 16.7414 17.7934 16.8576 17.6772C16.9739 17.5608 17.0407 17.3997 17.0407 17.2353C17.0407 17.071 16.9738 16.9098 16.8576 16.7929C16.7401 16.6763 16.5813 16.6108 16.4158 16.6105Z" fill="#0D1533"/>
    </g>
    <defs>
        <clipPath id="clip0_2476_235">
            <rect width="32" height="32" fill="white" transform="translate(0.600037)"/>
        </clipPath>
    </defs>
</svg>
