<svg width="81" height="80" viewBox="0 0 81 80" fill="none" xmlns="http://www.w3.org/2000/svg">
<g id="Frame">
<g id="Group">
<path id="Vector" d="M71.75 28.75L70.5 26.25L71.75 25H76.75L78 27.4975L76.75 28.75H71.75ZM9.25 28.75L10.5 26.25L9.25 25H4.25L3 27.4975L4.25 28.75H9.25Z" fill="#F5B953"/>
<path id="Vector_2" d="M56.75 57.1438L60.5 58.7512L73 57.5012V53.7512L69.25 48.7512V48.9437L54.2487 51.25L26.75 51.2512L11.75 48.9437L11.7487 48.75L8 53.7512V57.5012L20.5 58.7512L24.25 57.1438L25.5 56.25L26.75 58.75H54.25L55.5 56.25L56.75 57.1438Z" fill="#243242"/>
<path id="Vector_3" d="M74.25 56.5275L75.6363 55.575C75.9817 55.3349 76.2635 55.0144 76.4575 54.6412C76.6516 54.268 76.7519 53.8531 76.75 53.4325V42.5L70.5013 48.7488L70.1863 49.9988L73 53.75V57.5L74.25 56.5275ZM6.75003 56.5275L5.36378 55.575C5.01838 55.3349 4.73654 55.0144 4.54252 54.6412C4.3485 54.268 4.24812 53.8531 4.25003 53.4325V42.5L10.4988 48.7488L10.8138 49.9988L8.00003 53.75V57.5L6.75003 56.5275Z" fill="#F2C351"/>
<path id="Vector_4" d="M69.25 31.25L66.9738 26.6963C66.0027 24.755 64.6222 23.0475 62.9275 21.6913L62.9263 21.69C60.5335 19.7753 57.6115 18.6397 54.5537 18.4362L40.5 17.5L26.4462 18.4375C23.3885 18.641 20.4665 19.7765 18.0738 21.6913L18.0725 21.6925C16.3778 23.0487 14.9973 24.7563 14.0263 26.6975L11.75 31.25" fill="#C7E2FC"/>
<path id="Vector_5" d="M75.5 56.25V58.6737C75.5 60.0962 74.3812 61.25 73 61.25H68C66.6188 61.25 65.5 60.1725 65.5 58.75M5.5 56.25V58.6737C5.5 60.0962 6.61875 61.25 8 61.25H13C14.3813 61.25 15.5 60.1725 15.5 58.75" fill="#4D5D7A"/>
<path id="Vector_6" d="M73 61.2501H68C66.6187 61.2501 65.5 60.0963 65.5 58.6738" fill="#4D5D7A"/>
<path id="Vector_7" d="M11.75 31.25H69.25V46.25H11.75V31.25Z" fill="#F5B953"/>
<path id="Vector_8" d="M12.2725 31.25L21.75 41.25L30.5 43.75H35.5L38 42.5H43L45.5 43.75H50.5L59.25 41.25L69.2487 31.2488L74.25 33.75L76.75 37.5V42.5L70.5 48.75L54.2487 51.2488L26.75 51.25L10.5 48.75L4.25 42.5V37.5L6.75 33.75L11.75 31.25H12.2725Z" fill="#F5B953"/>
<path id="Vector_9" d="M18 42.5L13.9012 45.4138L8.90125 42.3463L9.24999 36.78L18 42.5ZM63 42.5L67.0987 45.4138L72.0987 42.3463L71.75 36.78L63 42.5Z" fill="#C7E2FC"/>
<path id="Vector_10" d="M7.29249 58.4163L4.65623 56.605C4.14318 56.2506 3.72423 55.7764 3.43564 55.2236C3.14705 54.6709 2.99752 54.0561 2.99998 53.4325V41.9325H5.49998V53.4325C5.49998 53.8838 5.71373 54.3 6.07123 54.5463L8.70749 56.3575L7.29249 58.4163ZM11.75 30H69.2487V32.5H11.75V30ZM13.9012 46.6638C13.671 46.6638 13.4451 46.6002 13.2487 46.48L8.24873 43.4125C8.05509 43.2938 7.89741 43.1246 7.79259 42.9232C7.68777 42.7217 7.63977 42.4954 7.65374 42.2688L8.00249 36.7025C8.01608 36.4843 8.08669 36.2734 8.20726 36.091C8.32783 35.9086 8.49415 35.761 8.6896 35.6629C8.88506 35.5649 9.10281 35.5198 9.32113 35.5322C9.53944 35.5447 9.75067 35.6142 9.93373 35.7338L18.6837 41.4538C18.8536 41.5654 18.9937 41.7167 19.0919 41.8947C19.1901 42.0727 19.2435 42.2719 19.2475 42.4751C19.2514 42.6783 19.2058 42.8794 19.1145 43.0611C19.0233 43.2427 18.8891 43.3994 18.7237 43.5175L14.625 46.4325C14.4136 46.5829 14.1606 46.6637 13.9012 46.6638ZM10.1962 41.6738L13.85 43.915L15.7825 42.5425L10.3637 39.0013L10.1962 41.6738ZM67.0987 46.6638C66.8393 46.6637 66.5864 46.5829 66.375 46.4325L62.2762 43.5188C62.1106 43.4008 61.9762 43.2442 61.8848 43.0625C61.7933 42.8809 61.7476 42.6797 61.7516 42.4763C61.7555 42.273 61.809 42.0737 61.9074 41.8957C62.0058 41.7177 62.1461 41.5665 62.3162 41.455L71.0662 35.735C71.4375 35.49 71.9125 35.4638 72.31 35.6638C72.7075 35.8638 72.9687 36.2588 72.9975 36.7038L73.3462 42.27C73.3605 42.4967 73.3126 42.7231 73.2077 42.9246C73.1029 43.1261 72.9451 43.2953 72.7512 43.4138L67.7512 46.4813C67.5546 46.6008 67.3288 46.6639 67.0987 46.6638ZM65.2175 42.5438L67.15 43.9163L70.8037 41.675L70.6362 39.0025L65.2175 42.5438ZM9.38124 31.8088L8.47749 30H4.24998C4.08562 30.0003 3.92281 29.968 3.77094 29.9052C3.61906 29.8423 3.4811 29.7501 3.36498 29.6338L2.11499 28.3825C1.92963 28.197 1.80731 27.9578 1.76536 27.699C1.72341 27.4401 1.76395 27.1746 1.88123 26.94L3.13123 24.4413C3.34373 24.0175 3.77623 23.75 4.24998 23.75H9.24999C9.58249 23.75 9.89999 23.8813 10.1337 24.1163L11.3837 25.3663C11.5693 25.5516 11.6918 25.7907 11.734 26.0496C11.7762 26.3085 11.7359 26.5741 11.6187 26.8088L10.6475 28.75L11.6175 30.6913L9.38124 31.8088ZM4.76873 27.5H8.47749L8.97873 26.4963L8.73249 26.25H5.02249L4.52123 27.2525L4.76873 27.5ZM71.6187 31.8088L69.3825 30.69L70.3525 28.75L69.3825 26.8088C69.2654 26.5741 69.225 26.3085 69.2672 26.0496C69.3094 25.7907 69.4319 25.5516 69.6175 25.3663L70.8675 24.1163C70.983 23.9999 71.1206 23.9076 71.272 23.8447C71.4235 23.7818 71.586 23.7497 71.75 23.75H76.75C77.2237 23.75 77.6562 24.0175 77.8687 24.4413L79.1187 26.94C79.236 27.1746 79.2766 27.4401 79.2346 27.699C79.1927 27.9578 79.0703 28.197 78.885 28.3825L77.635 29.6338C77.5189 29.7501 77.3809 29.8423 77.229 29.9052C77.0772 29.968 76.9144 30.0003 76.75 30H72.5225L71.6187 31.8088ZM72.5225 27.5H76.2312L76.4787 27.2525L75.9775 26.25H72.2675L72.0212 26.4963L72.5225 27.5Z" fill="black"/>
<path id="Vector_11" d="M20.5 60C20.4582 60.0004 20.4165 59.9983 20.375 59.9938L7.875 58.7438C7.56667 58.7128 7.28084 58.5684 7.07297 58.3386C6.8651 58.1088 6.75 57.8099 6.75 57.5V53.75C6.75 53.4796 6.83772 53.2164 7 53L10.7488 47.9988L12.7487 49.4975L9.25 54.1663V56.3688L20.3038 57.4738L28.7588 53.8513L29.7425 56.1488L20.9925 59.8988C20.837 59.9659 20.6694 60.0004 20.5 60ZM60.5 60C60.3306 60.0004 60.163 59.9659 60.0075 59.8988L51.2575 56.1488L52.2413 53.8513L60.6963 57.4738L71.75 56.3688V54.1663L68.25 49.5L70.25 48L74 53C74.1623 53.2164 74.25 53.4796 74.25 53.75V57.5C74.25 57.8099 74.1349 58.1088 73.927 58.3386C73.7192 58.5684 73.4333 58.7128 73.125 58.7438L60.625 59.9938C60.5835 59.9983 60.5418 60.0004 60.5 60Z" fill="black"/>
<path id="Vector_12" d="M26.75 52.5001C26.6864 52.5002 26.6228 52.4952 26.56 52.4851L10.31 49.9851C10.0474 49.9445 9.80443 49.8215 9.61625 49.6339L3.36625 43.3839C3.25 43.268 3.1578 43.1302 3.09495 42.9786C3.0321 42.8269 2.99983 42.6643 3 42.5001V37.5001C3 37.2539 3.07375 37.0114 3.21 36.8064L5.71 33.0564C5.83125 32.8751 5.99625 32.7289 6.19125 32.6314L11.1913 30.1314C11.3638 30.0451 11.5563 30.0001 11.75 30.0001H12.2725C12.615 30.0001 12.9438 30.1414 13.18 30.3901L22.4237 40.1426L30.675 42.5001H35.205L37.4412 41.3814C37.6138 41.2951 37.8063 41.2501 38 41.2501H43C43.1937 41.2501 43.3862 41.2951 43.5587 41.3814L45.795 42.5001H50.325L58.5938 40.1376L68.3638 30.3651C68.7438 29.9839 69.3262 29.8914 69.8063 30.1301L74.8075 32.6314C75.0013 32.7289 75.1675 32.8751 75.2887 33.0564L77.7887 36.8064C77.9263 37.0114 78 37.2539 78 37.5001V42.5001C78 42.8314 77.8688 43.1501 77.6338 43.3839L71.3838 49.6339C71.1957 49.8218 70.9527 49.9448 70.69 49.9851L54.4388 52.4851C54.3759 52.4952 54.3124 52.5002 54.2487 52.5001H26.75ZM11.095 47.5776L26.845 50.0001H54.1538L69.9062 47.5776L75.5 41.9826V37.8789L73.3937 34.7201L69.495 32.7701L60.1338 42.1339C59.9835 42.2844 59.7972 42.3937 59.5925 42.4514L50.8425 44.9514C50.7312 44.9839 50.6159 45.0003 50.5 45.0001H45.5C45.3063 45.0001 45.1138 44.9551 44.9413 44.8689L42.705 43.7501H38.2962L36.06 44.8689C35.8859 44.9552 35.6943 45.0001 35.5 45.0001H30.5C30.3841 45.0003 30.2687 44.9839 30.1575 44.9514L21.4075 42.4514C21.1924 42.3901 20.9978 42.2723 20.8438 42.1101L11.835 32.6051L7.60625 34.7201L5.5 37.8789V41.9826L11.095 47.5776Z" fill="black"/>
<path id="Vector_13" d="M73.7075 58.4164L72.2912 56.3564L74.9275 54.5451C75.2862 54.3001 75.5 53.8839 75.5 53.4326V41.9326H78V53.4326C78 54.7089 77.3812 55.8951 76.345 56.6064L73.7075 58.4164ZM39.25 44.9989H41.75V47.4989H39.25V44.9989ZM54.25 60.0001H26.75C26.2763 60.0001 25.8438 59.7326 25.6312 59.3089L24.3812 56.8089L26.6175 55.6901L27.5225 57.5001H53.4775L54.3825 55.6914L56.6188 56.8101L55.3688 59.3101C55.1562 59.7326 54.7238 60.0001 54.25 60.0001ZM13 62.5001H8C5.9325 62.5001 4.25 60.7839 4.25 58.6739V56.2501H6.75V58.6739C6.75 59.4051 7.31 60.0001 8 60.0001H13C13.69 60.0001 14.25 59.4051 14.25 58.6739H16.75C16.75 60.7839 15.0675 62.5001 13 62.5001Z" fill="black"/>
<path id="Vector_14" d="M13 62.5H8V60H13C13.69 60 14.25 59.405 14.25 58.6737H16.75C16.75 60.7837 15.0675 62.5 13 62.5ZM73 62.5H68C65.8963 62.5 64.25 60.8525 64.25 58.75H66.75C66.75 59.4625 67.2875 60 68 60H73C73.69 60 74.25 59.405 74.25 58.6737V56.25H76.75V58.6737C76.75 60.7837 75.0675 62.5 73 62.5Z" fill="black"/>
<path id="Vector_15" d="M72.9999 62.5001H67.9999C65.9324 62.5001 64.2499 60.7838 64.2499 58.6738H66.7499C66.7499 59.4051 67.3099 60.0001 67.9999 60.0001H72.9999V62.5001ZM68.1312 31.8088L65.8549 27.2551C64.9676 25.4871 63.7119 23.9297 62.1724 22.6876L62.145 22.6651C59.9537 20.9061 57.2739 19.8648 54.4699 19.6826L40.4999 18.7526L26.5299 19.6838C23.7136 19.8673 21.0229 20.9169 18.8262 22.6888C17.2871 23.931 16.0319 25.4885 15.1449 27.2563L12.8687 31.8101L10.6324 30.6913L12.9087 26.1376C13.9633 24.0368 15.458 22.1878 17.2912 20.7163L17.3224 20.6926C19.9069 18.6276 23.0626 17.4051 26.3637 17.1901L40.4162 16.2526C40.4715 16.2488 40.5271 16.2488 40.5825 16.2526L54.6349 17.1901C57.9364 17.4053 61.0924 18.6278 63.6774 20.6926C63.6874 20.7001 63.6987 20.7076 63.7075 20.7163C65.5406 22.1878 67.0353 24.0368 68.0899 26.1376L70.3662 30.6913L68.1312 31.8088Z" fill="black"/>
<path id="Vector_16" d="M36.0262 26.4838L44.78 20.2375L46.2325 22.2725L37.4787 28.5188L36.0262 26.4838Z" fill="black"/>
</g>
</g>
</svg>
