<svg width="33" height="32" viewBox="0 0 33 32" fill="none" xmlns="http://www.w3.org/2000/svg">
    <g clip-path="url(#clip0_2476_139)">
        <path d="M16.4079 31.375V0.625L26.9079 6.19462V31.375H16.4079Z" fill="#FEE28C"/>
        <path d="M9.45793 31.375V7.625H19.2079V31.375" fill="#A0AEFF"/>
        <path d="M2.27499 19.25H14.775V31.375H2.27499V19.25Z" fill="#FEE28C"/>
        <path d="M22.525 14.8712H30.525V31.375H22.525V14.8712Z" fill="#D8DEFF"/>
        <path d="M4.86874 21.7513H7.16549V24.048H4.86874V21.7513ZM9.95937 21.7513H12.2561V24.048H9.95937V21.7513ZM4.86874 26.5744H7.16549V28.8711H4.86874V26.5744ZM9.95937 26.5744H12.2561V28.8711H9.95937V26.5744Z" fill="white"/>
        <path d="M7.16511 21.1262H4.86836C4.52324 21.1262 4.24336 21.4061 4.24336 21.7512V24.0479C4.24336 24.3931 4.52324 24.6729 4.86836 24.6729H7.16511C7.51024 24.6729 7.79011 24.3931 7.79011 24.0479V21.7512C7.79011 21.406 7.5103 21.1262 7.16511 21.1262ZM6.54011 23.4229H5.49336V22.3762H6.54011V23.4229ZM12.2562 21.1262H9.95949C9.61436 21.1262 9.33449 21.4061 9.33449 21.7512V24.0479C9.33449 24.3931 9.61436 24.6729 9.95949 24.6729H12.2562C12.6014 24.6729 12.8812 24.3931 12.8812 24.0479V21.7512C12.8812 21.406 12.6014 21.1262 12.2562 21.1262ZM11.6312 23.4229H10.5845V22.3762H11.6312V23.4229ZM7.16511 25.9494H4.86836C4.52324 25.9494 4.24336 26.2292 4.24336 26.5744V28.8711C4.24336 29.2162 4.52324 29.4961 4.86836 29.4961H7.16511C7.51024 29.4961 7.79011 29.2162 7.79011 28.8711V26.5744C7.79011 26.2292 7.5103 25.9494 7.16511 25.9494ZM6.54011 28.2461H5.49336V27.1994H6.54011V28.2461ZM12.2562 25.9494H9.95949C9.61436 25.9494 9.33449 26.2292 9.33449 26.5744V28.8711C9.33449 29.2162 9.61436 29.4961 9.95949 29.4961H12.2562C12.6014 29.4961 12.8812 29.2162 12.8812 28.8711V26.5744C12.8812 26.2292 12.6014 25.9494 12.2562 25.9494ZM11.6312 28.2461H10.5845V27.1994H11.6312V28.2461ZM9.89999 17.0356C10.0162 16.9194 10.0831 16.7581 10.0831 16.5938C10.0831 16.4294 10.0162 16.2681 9.89999 16.1519C9.78245 16.0352 9.62373 15.9694 9.45811 15.9688C9.29311 15.9688 9.13249 16.0356 9.01624 16.1519C8.89942 16.2681 8.83311 16.4294 8.83311 16.5938C8.83311 16.7581 8.89942 16.9194 9.01624 17.0356C9.13249 17.1518 9.29374 17.2188 9.45811 17.2188C9.62249 17.2188 9.78311 17.1519 9.89999 17.0356Z" fill="#0D1533"/>
        <path d="M31.775 30.75H31.15V14.8711C31.15 14.526 30.8701 14.2461 30.525 14.2461H27.5329V6.19462C27.5329 5.96331 27.4052 5.75087 27.2008 5.64249L16.7008 0.0728685C16.6056 0.0223494 16.4989 -0.00267513 16.3911 0.000226452C16.2833 0.00312803 16.1782 0.0338571 16.0858 0.0894277C15.9934 0.144998 15.917 0.223521 15.8639 0.317365C15.8108 0.41121 15.7829 0.517185 15.7829 0.624994V6.99999H9.45793C9.11281 6.99999 8.83293 7.27987 8.83293 7.62499V14.1076C8.83293 14.4527 9.11281 14.7326 9.45793 14.7326C9.80306 14.7326 10.0829 14.4527 10.0829 14.1076V8.24999H18.5829V10.7461H16.4079C16.0628 10.7461 15.7829 11.026 15.7829 11.3711C15.7829 11.7162 16.0628 11.9961 16.4079 11.9961H18.5829V14.2461H16.4079C16.0628 14.2461 15.7829 14.526 15.7829 14.8711C15.7829 15.2162 16.0628 15.4961 16.4079 15.4961H18.5829V17.7461H16.4079C16.0628 17.7461 15.7829 18.026 15.7829 18.3711C15.7829 18.7162 16.0628 18.9961 16.4079 18.9961H18.5829V21.2461H16.4079C16.0628 21.2461 15.7829 21.526 15.7829 21.8711C15.7829 22.2162 16.0628 22.4961 16.4079 22.4961H18.5829V24.7461H16.4079C16.0628 24.7461 15.7829 25.026 15.7829 25.3711C15.7829 25.7162 16.0628 25.9961 16.4079 25.9961H18.5829V28.2461H16.4079C16.0628 28.2461 15.7829 28.526 15.7829 28.8711C15.7829 29.2162 16.0628 29.4961 16.4079 29.4961H18.5829V30.75H15.4V19.25C15.4 18.9049 15.1201 18.625 14.775 18.625H2.27499C1.92987 18.625 1.64999 18.9049 1.64999 19.25V30.75H1.02499C0.679869 30.75 0.399994 31.0299 0.399994 31.375C0.399994 31.7201 0.679869 32 1.02499 32H31.775C32.1201 32 32.4 31.7201 32.4 31.375C32.4 31.0299 32.1202 30.75 31.775 30.75ZM29.9 17.7461H26.525C26.1799 17.7461 25.9 18.026 25.9 18.3711C25.9 18.7162 26.1799 18.9961 26.525 18.9961H29.9V21.2461H26.525C26.1799 21.2461 25.9 21.526 25.9 21.8711C25.9 22.2162 26.1799 22.4961 26.525 22.4961H29.9V24.7461H26.525C26.1799 24.7461 25.9 25.026 25.9 25.3711C25.9 25.7162 26.1799 25.9961 26.525 25.9961H29.9V28.2461H28.0042C27.6591 28.2461 27.3792 28.526 27.3792 28.8711C27.3792 29.2162 27.6591 29.4961 28.0042 29.4961H29.9V30.75H23.15V15.4961H29.9V17.7461ZM19.2079 6.99999H17.0329V1.66399L26.2829 6.57062V14.2461H22.525C22.1799 14.2461 21.9 14.526 21.9 14.8711V30.75H19.8329V7.62499C19.8329 7.27987 19.5531 6.99999 19.2079 6.99999ZM2.89999 19.875H14.15V30.75H2.89999V19.875Z" fill="#0D1533"/>
        <path d="M25.1706 28.2463C25.0062 28.2463 24.845 28.3131 24.7287 28.4294C24.6125 28.5456 24.5456 28.7069 24.5456 28.8713C24.5456 29.0356 24.6124 29.1969 24.7287 29.3131C24.8451 29.4294 25.0062 29.4963 25.1706 29.4963C25.3356 29.4963 25.4962 29.4294 25.6124 29.3131C25.7295 29.1958 25.7953 29.037 25.7956 28.8713C25.7956 28.7062 25.7293 28.5456 25.6124 28.4294C25.4951 28.3125 25.3363 28.2467 25.1706 28.2463ZM21.9 9.47919C22.2451 9.47919 22.525 9.19931 22.525 8.85419V7.6875C22.525 7.34238 22.2451 7.0625 21.9 7.0625C21.5549 7.0625 21.275 7.34238 21.275 7.6875V8.85419C21.275 9.19938 21.5549 9.47919 21.9 9.47919ZM21.9 13.2831C22.2451 13.2831 22.525 13.0032 22.525 12.6581V11.3711C22.525 11.0259 22.2451 10.7461 21.9 10.7461C21.5549 10.7461 21.275 11.0259 21.275 11.3711V12.6581C21.275 13.0033 21.5549 13.2831 21.9 13.2831ZM24.4 9.47919C24.7451 9.47919 25.025 9.19931 25.025 8.85419V7.6875C25.025 7.34238 24.7451 7.0625 24.4 7.0625C24.0549 7.0625 23.775 7.34238 23.775 7.6875V8.85419C23.775 9.19938 24.0549 9.47919 24.4 9.47919ZM24.4 13.2831C24.7451 13.2831 25.025 13.0032 25.025 12.6581V11.3711C25.025 11.0259 24.7451 10.7461 24.4 10.7461C24.0549 10.7461 23.775 11.0259 23.775 11.3711V12.6581C23.775 13.0033 24.0549 13.2831 24.4 13.2831Z" fill="#0D1533"/>
    </g>
    <defs>
        <clipPath id="clip0_2476_139">
            <rect width="32" height="32" fill="white" transform="translate(0.399994)"/>
        </clipPath>
    </defs>
</svg>
