<svg width="33" height="32" viewBox="0 0 33 32" fill="none" xmlns="http://www.w3.org/2000/svg">
    <path d="M20.8538 25.3685V28.0645C20.8538 28.7997 20.2579 29.3957 19.5226 29.3957H3.57988C2.84458 29.3957 2.24863 28.7997 2.24863 28.0645V25.3685C2.24863 24.6338 2.84458 24.0378 3.57988 24.0378H19.5226C20.2578 24.0378 20.8538 24.6338 20.8538 25.3685Z" fill="#FE9901"/>
    <path d="M20.8535 25.3685V28.0645C20.8535 28.7519 20.3323 29.318 19.6634 29.3886C19.6167 29.3934 19.5701 29.3957 19.5223 29.3957H6.85596C6.12131 29.3957 5.5253 28.7997 5.5253 28.0645V25.3685C5.5253 24.6339 6.12126 24.0378 6.85596 24.0378H19.5223C20.2575 24.0378 20.8535 24.6339 20.8535 25.3685Z" fill="#F4B74A"/>
    <path d="M20.8535 25.3687V28.0647C20.8535 28.7521 20.3322 29.3182 19.6633 29.3888C19.542 29.3936 19.4206 29.3959 19.2993 29.3959C18.0129 29.3959 16.7264 29.1311 15.5285 28.6003C14.7245 28.2446 13.9617 27.7688 13.2647 27.174C13.0771 27.0137 12.8959 26.8462 12.7213 26.6718C11.934 25.8846 11.3178 24.9915 10.8718 24.038H19.5222C20.2575 24.038 20.8535 24.6341 20.8535 25.3687ZM21.7501 20.0104V22.7063C21.7501 23.4416 21.1542 24.0376 20.4189 24.0376H4.47618C3.74088 24.0376 3.14493 23.4416 3.14493 22.7063V20.0104C3.14493 19.2757 3.74088 18.6797 4.47618 18.6797H20.4189C21.1541 18.6797 21.7501 19.2757 21.7501 20.0104Z" fill="#FE9901"/>
    <path d="M20.8535 20.0101V22.7061C20.8535 23.4414 20.2576 24.0374 19.5223 24.0374H6.85596C6.12131 24.0374 5.5253 23.4414 5.5253 22.7061V20.0101C5.5253 19.2755 6.12126 18.6795 6.85596 18.6795H19.5223C20.2575 18.6795 20.8535 19.2754 20.8535 20.0101Z" fill="#F4B74A"/>
    <path d="M20.8539 20.01V22.706C20.8539 23.4413 20.2579 24.0373 19.5226 24.0373H11.7676C10.9804 22.3545 10.7245 20.4841 11.0007 18.6794H19.5226C20.2579 18.6794 20.8539 19.2753 20.8539 20.01ZM20.8538 3.93532V6.63127C20.8538 7.36657 20.2579 7.96252 19.5226 7.96252H3.57988C2.84458 7.96252 2.24863 7.36657 2.24863 6.63127V3.93532C2.24863 3.20067 2.84458 2.60465 3.57988 2.60465H19.5226C20.2578 2.60465 20.8538 3.20061 20.8538 3.93532Z" fill="#FE9901"/>
    <path d="M20.8535 3.93532V6.63127C20.8535 7.36657 20.2576 7.96252 19.5223 7.96252H6.85596C6.12131 7.96252 5.5253 7.36657 5.5253 6.63127V3.93532C5.5253 3.20067 6.12126 2.60465 6.85596 2.60465H19.5223C20.2575 2.60465 20.8535 3.20061 20.8535 3.93532Z" fill="#F4B74A"/>
    <path d="M16.7128 2.60442H18.6654V7.96288H16.7128V2.60442ZM14.302 2.60442H15.2783V7.96288H14.302V2.60442Z" fill="#F9C662"/>
    <path d="M23.2447 9.29367V11.9896C23.2447 12.7249 22.6488 13.3209 21.9135 13.3209H5.97078C5.23548 13.3209 4.63953 12.7249 4.63953 11.9896V9.29367C4.63953 8.55902 5.23548 7.96301 5.97078 7.96301H21.9135C22.6488 7.96301 23.2447 8.55902 23.2447 9.29367Z" fill="#FE9901"/>
    <path d="M23.2449 9.29367V11.9896C23.2449 12.7249 22.6489 13.3209 21.9136 13.3209H9.24732C8.51267 13.3209 7.91666 12.7249 7.91666 11.9896V9.29367C7.91666 8.55902 8.51261 7.96301 9.24732 7.96301H21.9136C22.6489 7.96301 23.2449 8.55902 23.2449 9.29367Z" fill="#F4B74A"/>
    <path d="M19.0645 7.96323H21.0171V13.3217H19.0645V7.96323ZM16.6531 7.96323H17.6294V13.3217H16.6531V7.96323Z" fill="#F9C662"/>
    <path d="M23.245 11.1187V11.9896C23.245 12.7249 22.649 13.3209 21.9137 13.3209H14.417C16.8494 11.0278 20.2149 10.2937 23.245 11.1187ZM20.8538 14.6518V17.3478C20.8538 18.0831 20.2579 18.679 19.5226 18.679H3.57988C2.84458 18.679 2.24863 18.0831 2.24863 17.3478V14.6518C2.24863 13.9172 2.84458 13.3212 3.57988 13.3212H19.5226C20.2578 13.3212 20.8538 13.9172 20.8538 14.6518Z" fill="#FE9901"/>
    <path d="M20.8535 14.6523V17.3482C20.8535 18.0835 20.2576 18.6795 19.5223 18.6795H6.85596C6.12131 18.6795 5.5253 18.0835 5.5253 17.3482V14.6523C5.5253 13.9176 6.12126 13.3216 6.85596 13.3216H19.5223C20.2575 13.3216 20.8535 13.9176 20.8535 14.6523Z" fill="#F4B74A"/>
    <path d="M20.8537 14.6523V17.3482C20.8537 18.0835 20.2577 18.6795 19.5224 18.6795H10.1039C10.3926 16.7893 11.2654 14.9715 12.7209 13.5159C12.7869 13.4501 12.8538 13.3853 12.9218 13.3216H19.5224C20.2577 13.3216 20.8537 13.9176 20.8537 14.6523Z" fill="#FE9901"/>
    <path d="M28.627 26.6715C25.8288 29.4693 21.6922 30.1124 18.2786 28.6002C17.4588 28.2371 16.6962 27.7567 16.0148 27.1741C15.827 27.0138 15.6456 26.8461 15.471 26.6715C11.8384 23.0384 11.8384 17.1487 15.471 13.5155C19.1041 9.88291 24.9939 9.88291 28.627 13.5155C28.8017 13.6901 28.9693 13.8715 29.1296 14.0594C29.7123 14.7407 30.1927 15.5033 30.5556 16.3231C32.0679 19.7363 31.4247 23.8733 28.627 26.6715Z" fill="#F4B74A"/>
    <path d="M30.5557 16.323L18.2787 28.6C17.459 28.237 16.6964 27.7566 16.015 27.174L29.1297 14.0593C29.7124 14.7406 30.1928 15.5032 30.5557 16.323Z" fill="#F9C662"/>
    <path d="M28.627 20.0936C28.627 23.7265 25.6819 26.6716 22.049 26.6716C19.9984 26.6716 18.1671 25.7335 16.9605 24.2626C16.0294 23.1277 15.4711 21.6759 15.4711 20.0936C15.4711 16.4608 18.4162 13.5157 22.0491 13.5157C23.6317 13.5157 25.0837 14.0748 26.2184 15.006C27.6889 16.212 28.627 18.0433 28.627 20.0936Z" fill="#FFD488"/>
    <path d="M26.2184 15.0058L16.9614 24.2628L16.9606 24.2624C16.6877 23.93 16.4482 23.5716 16.2456 23.1923C16.0115 22.7555 15.828 22.2934 15.6988 21.815C15.5473 21.2537 15.4707 20.6748 15.4711 20.0934C15.4711 16.4605 18.4162 13.5154 22.0491 13.5154C22.6449 13.5154 23.2223 13.5946 23.7707 13.7431C24.2491 13.8725 24.7112 14.0561 25.148 14.2903C25.5273 14.4933 25.8858 14.7329 26.2184 15.0058Z" fill="#F9C662"/>
    <path d="M25.1478 14.2905L16.2454 23.1924C16.0114 22.7556 15.8279 22.2935 15.6986 21.8151L23.7706 13.7432C24.249 13.8726 24.711 14.0562 25.1478 14.2905Z" fill="#FFD488"/>
    <path d="M17.2506 28.9476H3.57957C3.09271 28.9476 2.69674 28.5515 2.69674 28.0648V25.3688C2.69674 24.882 3.09277 24.486 3.57957 24.486H12.2493C12.497 24.486 12.6977 24.2853 12.6977 24.0377C12.6977 23.79 12.497 23.5893 12.2493 23.5893H4.47629C3.98943 23.5893 3.59346 23.1933 3.59346 22.7065V20.0105C3.59346 19.5237 3.98949 19.1277 4.47629 19.1277H11.4324C11.4912 19.1277 11.5496 19.1161 11.604 19.0936C11.6584 19.071 11.7078 19.038 11.7494 18.9964C11.7911 18.9547 11.8241 18.9053 11.8466 18.8509C11.8691 18.7965 11.8807 18.7382 11.8807 18.6793C11.8807 18.6204 11.8691 18.5621 11.8466 18.5077C11.8241 18.4533 11.7911 18.4039 11.7494 18.3623C11.7078 18.3206 11.6584 18.2876 11.604 18.2651C11.5496 18.2425 11.4912 18.2309 11.4324 18.231H3.57957C3.09271 18.231 2.69674 17.8349 2.69674 17.3481V14.6522C2.69674 14.1654 3.09277 13.7693 3.57957 13.7693H13.9729C14.0318 13.7693 14.0901 13.7577 14.1445 13.7352C14.1989 13.7127 14.2483 13.6797 14.29 13.638C14.3316 13.5964 14.3646 13.547 14.3872 13.4926C14.4097 13.4382 14.4213 13.3799 14.4213 13.321C14.4213 13.2621 14.4097 13.2038 14.3872 13.1494C14.3646 13.095 14.3316 13.0456 14.29 13.0039C14.2483 12.9623 14.1989 12.9293 14.1445 12.9067C14.0901 12.8842 14.0318 12.8726 13.9729 12.8726H5.97078C5.48392 12.8726 5.08795 12.4766 5.08795 11.9898V9.29382C5.08795 8.80703 5.48398 8.41099 5.97078 8.41099H21.9136C22.4005 8.41099 22.7964 8.80703 22.7964 9.29382V9.62822C22.7964 9.87583 22.9971 10.0766 23.2448 10.0766C23.4925 10.0766 23.6932 9.87583 23.6932 9.62822V9.29382C23.6932 8.31255 22.8949 7.51427 21.9136 7.51427H21.0664C21.2209 7.24571 21.3021 6.94126 21.3018 6.63144V3.93537C21.3018 2.9541 20.5036 2.15582 19.5223 2.15582H3.57957C2.5983 2.15617 1.80002 2.95445 1.80002 3.93566V6.63162C1.80002 7.61289 2.5983 8.41117 3.57957 8.41117H4.42666C4.27218 8.67973 4.19099 8.98418 4.19123 9.294V11.99C4.19098 12.2998 4.27217 12.6042 4.42666 12.8728H3.57957C2.5983 12.8727 1.80002 13.671 1.80002 14.6522V17.3482C1.80002 18.1241 2.29941 18.7852 2.99346 19.0281C2.79964 19.319 2.69639 19.6609 2.69674 20.0105V22.7065C2.69639 23.0561 2.79964 23.3979 2.99346 23.6889C2.29941 23.9317 1.80002 24.5929 1.80002 25.3688V28.0647C1.80002 29.046 2.5983 29.8442 3.57957 29.8442H17.2506C17.3695 29.8442 17.4835 29.797 17.5676 29.7129C17.6517 29.6288 17.6989 29.5148 17.6989 29.3959C17.6989 29.277 17.6517 29.163 17.5676 29.0789C17.4835 28.9948 17.3695 28.9476 17.2506 28.9476ZM2.69668 6.63162V3.93566C2.69668 3.44886 3.09271 3.05283 3.57951 3.05283H19.5223C20.0091 3.05283 20.4051 3.44886 20.4051 3.93566V6.63162C20.4051 7.11841 20.0091 7.51445 19.5223 7.51445H3.57957C3.09271 7.51445 2.69668 7.11841 2.69668 6.63162Z" fill="#0D1533"/>
    <path d="M27.3665 11.9186C27.3171 11.8865 27.262 11.8644 27.2041 11.8535C27.1462 11.8427 27.0868 11.8434 27.0292 11.8555C26.9716 11.8677 26.9169 11.8911 26.8683 11.9243C26.8198 11.9576 26.7782 12.0001 26.7461 12.0495C26.7139 12.0988 26.6918 12.154 26.681 12.2118C26.6701 12.2697 26.6708 12.3291 26.683 12.3867C26.6951 12.4444 26.7185 12.499 26.7517 12.5476C26.785 12.5962 26.8275 12.6377 26.8768 12.6699C29.3983 14.313 30.9035 17.0882 30.9035 20.0936C30.9035 24.9758 26.9315 28.9478 22.0493 28.9478C17.167 28.9478 13.195 24.9758 13.195 20.0936C13.195 15.2114 17.167 11.2393 22.0493 11.2393C23.3312 11.2393 24.5675 11.5072 25.7238 12.0353C25.7773 12.0598 25.8352 12.0734 25.894 12.0756C25.9529 12.0777 26.0115 12.0682 26.0667 12.0476C26.1219 12.027 26.1725 11.9958 26.2156 11.9557C26.2586 11.9155 26.2934 11.8673 26.3179 11.8137C26.3423 11.7602 26.356 11.7023 26.3581 11.6435C26.3602 11.5847 26.3507 11.526 26.3301 11.4708C26.3096 11.4156 26.2783 11.3651 26.2382 11.322C26.1981 11.2789 26.1499 11.2441 26.0963 11.2197C24.8223 10.6377 23.4607 10.3427 22.0493 10.3427C16.6727 10.3427 12.2984 14.7169 12.2984 20.0936C12.2984 25.4702 16.6727 29.8444 22.0493 29.8444C27.4259 29.8444 31.8002 25.4702 31.8002 20.0936C31.8002 16.784 30.1428 13.7279 27.3665 11.9186Z" fill="#0D1533"/>
    <path d="M16.6405 22.9813C16.6128 22.9294 16.5751 22.8834 16.5296 22.8461C16.4841 22.8087 16.4317 22.7807 16.3753 22.7636C16.319 22.7465 16.2598 22.7407 16.2012 22.7464C16.1426 22.7522 16.0858 22.7695 16.0339 22.7973C15.9819 22.825 15.936 22.8627 15.8986 22.9082C15.8613 22.9537 15.8332 23.0062 15.8161 23.0625C15.799 23.1189 15.7932 23.178 15.799 23.2366C15.8048 23.2952 15.822 23.3521 15.8498 23.404C16.1764 24.0142 16.5912 24.5728 17.081 25.0618C18.4508 26.4316 20.2501 27.1165 22.0493 27.1165C23.8486 27.1165 25.6479 26.4316 27.0177 25.0618C29.7572 22.3222 29.7572 17.8646 27.0177 15.1251C25.6905 13.7979 23.9261 13.0671 22.0493 13.0671C20.1726 13.0671 18.4081 13.798 17.081 15.1251C15.3069 16.899 14.6117 19.5072 15.2666 21.9318C15.282 21.9887 15.3084 22.0419 15.3443 22.0886C15.3802 22.1352 15.425 22.1743 15.476 22.2036C15.5271 22.233 15.5834 22.252 15.6418 22.2595C15.7002 22.2671 15.7595 22.2631 15.8163 22.2477C15.8732 22.2324 15.9264 22.206 15.9731 22.1701C16.0197 22.1341 16.0588 22.0894 16.0881 22.0383C16.1175 21.9873 16.1365 21.931 16.144 21.8726C16.1516 21.8142 16.1476 21.7549 16.1322 21.698C15.5608 19.5825 16.1673 17.3068 17.7151 15.7591C18.8728 14.6014 20.4121 13.9637 22.0494 13.9637C23.6867 13.9637 25.226 14.6013 26.3837 15.7591C28.7737 18.1491 28.7737 22.0378 26.3837 24.4278C23.9938 26.8177 20.1051 26.8177 17.7151 24.4278C17.2876 24.0012 16.9255 23.5137 16.6405 22.9813Z" fill="#0D1533"/>
    <path d="M20.469 21.784C20.469 21.7251 20.4574 21.6668 20.4348 21.6124C20.4123 21.558 20.3793 21.5086 20.3376 21.4669C20.296 21.4253 20.2466 21.3923 20.1922 21.3697C20.1378 21.3472 20.0795 21.3356 20.0206 21.3356C19.9617 21.3356 19.9034 21.3472 19.849 21.3697C19.7946 21.3923 19.7452 21.4253 19.7035 21.4669C19.6619 21.5086 19.6289 21.558 19.6063 21.6124C19.5838 21.6668 19.5722 21.7251 19.5722 21.784C19.5722 22.8312 20.4485 23.7043 21.601 23.8871V24.1508C21.601 24.3984 21.8017 24.5991 22.0493 24.5991C22.297 24.5991 22.4977 24.3984 22.4977 24.1508V23.8871C23.6502 23.7043 24.5264 22.8311 24.5264 21.784C24.5264 20.7368 23.6502 19.8636 22.4977 19.6809V17.2118C23.1514 17.3641 23.6297 17.8403 23.6297 18.4029C23.6297 18.6505 23.8304 18.8512 24.0781 18.8512C24.3258 18.8512 24.5265 18.6505 24.5265 18.4029C24.5265 17.3557 23.6502 16.4825 22.4978 16.2998V16.0361C22.4978 15.7885 22.2971 15.5877 22.0494 15.5877C21.8017 15.5877 21.601 15.7885 21.601 16.0361V16.2998C20.4486 16.4826 19.5723 17.3558 19.5723 18.4029C19.5723 19.45 20.4486 20.3232 21.601 20.506V22.975C20.9473 22.8227 20.469 22.3465 20.469 21.784ZM23.6296 21.784C23.6296 22.3465 23.1513 22.8227 22.4976 22.975V20.593C23.1513 20.7453 23.6296 21.2215 23.6296 21.784ZM20.469 18.4029C20.469 17.8403 20.9473 17.3642 21.601 17.2118V19.5939C20.9473 19.4416 20.469 18.9654 20.469 18.4029Z" fill="#0D1533"/>
</svg>
