<svg width="32" height="32" viewBox="0 0 32 32" fill="none" xmlns="http://www.w3.org/2000/svg">
    <path d="M12.0081 2.55834L12.0081 0.811863C12.0081 0.72915 12.0409 0.649824 12.0994 0.591337C12.1579 0.53285 12.2372 0.499992 12.3199 0.499992L16.0624 0.499992C16.1451 0.499992 16.2244 0.53285 16.2829 0.591337C16.3414 0.649824 16.3743 0.72915 16.3743 0.811863L16.3743 2.55834L12.0081 2.55834ZM18.2455 2.55834L18.2455 0.811863C18.2455 0.72915 18.2783 0.649824 18.3368 0.591337C18.3953 0.53285 18.4746 0.499992 18.5574 0.499992L19.5553 0.499992C19.6381 0.499992 19.7174 0.53285 19.7759 0.591337C19.8344 0.649824 19.8672 0.72915 19.8672 0.811863L19.8672 2.55834L18.2455 2.55834ZM21.7384 2.55834L21.7384 0.811864C21.7384 0.770908 21.7465 0.730354 21.7622 0.692516C21.7779 0.654678 21.8008 0.620297 21.8298 0.591337C21.8587 0.562377 21.8931 0.539405 21.931 0.523732C21.9688 0.508059 22.0094 0.499992 22.0503 0.499992L23.0483 0.499992C23.131 0.499992 23.2103 0.53285 23.2688 0.591337C23.3273 0.649825 23.3602 0.72915 23.3602 0.811864L23.3602 2.55834L21.7384 2.55834ZM8.5151 2.55834L8.5151 0.811863C8.5151 0.72915 8.54795 0.649824 8.60644 0.591337C8.66493 0.532849 8.74425 0.499992 8.82697 0.499992L9.82496 0.499992C9.90767 0.499992 9.98699 0.53285 10.0455 0.591337C10.104 0.649824 10.1368 0.72915 10.1368 0.811863L10.1368 2.55834L8.5151 2.55834Z" fill="#D8DEFF"/>
    <path d="M9.45245 11.3531C9.45245 14.9692 12.3839 17.9007 16 17.9007C19.6161 17.9007 22.5475 14.9692 22.5475 11.3531C22.5475 7.73699 19.6161 4.80556 16 4.80556C12.3839 4.80556 9.45245 7.73699 9.45245 11.3531Z" fill="#7474A4"/>
    <path d="M11.9468 11.3531C11.9468 13.5916 13.7615 15.4063 16 15.4063C18.2385 15.4063 20.0532 13.5916 20.0532 11.3531C20.0532 9.11459 18.2385 7.29991 16 7.29991C13.7615 7.29991 11.9468 9.11459 11.9468 11.3531Z" fill="#9393C3"/>
    <path d="M11.9077 6.38113C11.9077 6.38113 12.404 8.71374 12.7996 8.865C14.3399 9.45369 15.1698 10.4029 15.9995 11.3525C15.9302 10.0938 15.8605 8.83525 15.0096 7.42347C14.7908 7.06045 11.9077 6.38113 11.9077 6.38113ZM18.4955 5.38745C18.4955 5.38745 16.4879 6.91974 16.5547 7.33827C16.8148 8.96636 16.4075 10.1597 16 11.3531C17.056 10.6636 18.1116 9.97395 18.9091 8.53061C19.114 8.15974 18.4955 5.38745 18.4955 5.38745Z" fill="#7474A4"/>
    <path d="M13.5046 17.3188C13.5046 17.3188 15.5121 15.7865 15.4453 15.368C15.1853 13.7404 15.5922 12.5473 15.9996 11.3544C16.0688 12.6129 16.1386 13.8713 16.9895 15.283C17.2083 15.646 19.7784 16.5768 19.7784 16.5768C19.7784 16.5768 19.596 13.9925 19.2004 13.8413C17.6598 13.2525 16.8299 12.303 16 11.3532C17.1249 11.9228 18.2497 12.4922 19.8982 12.4612C20.3219 12.4532 22.2927 10.146 22.2927 10.146C22.2927 10.146 20.0828 9.55935 19.7538 9.8265C18.4739 10.8657 17.237 11.1096 16 11.3532L15.9995 11.3526L15.9995 11.3529C14.8749 10.7833 13.7501 10.2142 12.1018 10.2452C11.6781 10.2531 9.69462 12.4774 9.69462 12.4774C9.69462 12.4774 11.9173 13.147 12.2463 12.8798C13.526 11.8408 14.7627 11.5968 15.9995 11.3533L15.9995 11.3535C14.9437 12.0428 13.8882 12.7325 13.0909 14.1757C12.886 14.5465 13.5046 17.3188 13.5046 17.3188Z" fill="#7474A4"/>
    <path d="M15.0096 7.42347C14.7907 7.06027 14.5208 6.68733 14.1852 6.3013L11.9077 6.3812L11.4601 8.48864C11.9618 8.58619 12.4038 8.71374 12.7997 8.86506C13.36 8.14358 14.1441 7.64247 15.0096 7.42347ZM17.4526 7.56911C18.0024 7.77962 18.4995 8.10778 18.9092 8.53061C19.1142 8.15961 19.2648 7.79341 19.4312 7.30995L18.4956 5.38745L16.2109 5.98893C16.3774 6.47258 16.488 6.91955 16.5548 7.33827C16.8619 7.38067 17.1631 7.45813 17.4526 7.56911ZM19.7538 9.82644C20.0855 10.6415 20.1538 11.5652 19.8982 12.4611C20.3221 12.4532 20.78 12.4059 21.2821 12.3083L22.2927 10.146L20.7503 8.8539C20.4148 9.23993 20.083 9.55917 19.7538 9.82644ZM16.9895 15.283C17.2083 15.6462 17.4783 16.0191 17.8139 16.4052L19.7784 16.5768L20.5399 14.2176C20.0382 14.12 19.5962 13.9925 19.2003 13.8412C18.6398 14.563 17.8554 15.0641 16.9895 15.283ZM15.7892 16.7173C15.6227 16.2336 15.5121 15.7867 15.4453 15.368C15.1382 15.3255 14.837 15.2481 14.5475 15.1372C13.9977 14.9267 13.5006 14.5985 13.091 14.1757C12.8859 14.5467 12.6971 14.9341 12.5689 15.3963L13.5046 17.3188L15.7892 16.7173ZM12.2463 12.8798C11.9145 12.0647 11.8462 11.141 12.1018 10.2451C11.6779 10.253 11.22 10.3004 10.718 10.3979L9.69456 12.4773L11.2497 13.8523C11.5853 13.4663 11.9171 13.1471 12.2463 12.8798Z" fill="#70709F"/>
    <path d="M15.3294 13.1C15.2958 13.0871 15.2627 13.0732 15.2303 13.0586L14.2841 11.9695L16.6941 9.69746L17.7055 10.5832C17.9038 11.0227 17.9334 11.538 17.7469 12.0236C17.3766 12.9885 16.2942 13.4704 15.3294 13.1Z" fill="#A0AEFF"/>
    <path d="M15.1887 11.6181C15.5591 10.6533 16.6414 10.1714 17.6062 10.5418C17.6399 10.5547 17.6729 10.5687 17.7054 10.5833C17.5097 10.1498 17.1498 9.79014 16.6706 9.60619C15.7058 9.23582 14.6234 9.71772 14.2531 10.6825C13.8957 11.6136 14.3321 12.6542 15.2302 13.0586C15.0319 12.6192 15.0022 12.1038 15.1887 11.6181Z" fill="#8396FF"/>
    <path d="M9.45245 24.1392C9.45245 27.7553 12.3839 30.6868 16 30.6868C19.6161 30.6868 22.5475 27.7553 22.5475 24.1392C22.5475 20.5231 19.6161 17.5917 16 17.5917C12.3839 17.5917 9.45245 20.5231 9.45245 24.1392Z" fill="#7474A4"/>
    <path d="M11.9468 24.1392C11.9468 26.3777 13.7615 28.1924 16 28.1924C18.2385 28.1924 20.0532 26.3777 20.0532 24.1392C20.0532 21.9007 18.2385 20.086 16 20.086C13.7615 20.086 11.9468 21.9007 11.9468 24.1392Z" fill="#9393C3"/>
    <path d="M11.9077 19.1673C11.9077 19.1673 12.404 21.4999 12.7996 21.6512C14.3399 22.2398 15.1698 23.1891 15.9995 24.1386C15.9302 22.8799 15.8605 21.6214 15.0096 20.2096C14.7908 19.8465 11.9077 19.1673 11.9077 19.1673ZM18.4955 18.1735C18.4955 18.1735 16.4879 19.7058 16.5547 20.1244C16.8148 21.7525 16.4075 22.9458 16 24.1392C17.056 23.4497 18.1116 22.7601 18.9091 21.3167C19.114 20.9458 18.4955 18.1735 18.4955 18.1735Z" fill="#7474A4"/>
    <path d="M13.5046 30.1049C13.5046 30.1049 15.5121 28.5726 15.4453 28.1541C15.1853 26.5266 15.5922 25.3335 15.9996 24.1405C16.0688 25.3991 16.1386 26.6575 16.9895 28.0692C17.2083 28.4322 19.7784 29.363 19.7784 29.363C19.7784 29.363 19.596 26.7786 19.2004 26.6274C17.6598 26.0386 16.8299 25.0892 16 24.1393C17.1249 24.709 18.2497 25.2783 19.8982 25.2473C20.3219 25.2394 22.2927 22.9322 22.2927 22.9322C22.2927 22.9322 20.0828 22.3455 19.7538 22.6127C18.4739 23.6519 17.237 23.8958 16 24.1393L15.9995 24.1387L15.9995 24.1391C14.8749 23.5695 13.7501 23.0003 12.1018 23.0313C11.6781 23.0393 9.69462 25.2636 9.69462 25.2636C9.69462 25.2636 11.9173 25.9331 12.2463 25.666C13.526 24.6269 14.7627 24.383 15.9995 24.1394L15.9995 24.1396C14.9437 24.829 13.8882 25.5187 13.0909 26.9618C12.886 27.3326 13.5046 30.1049 13.5046 30.1049Z" fill="#7474A4"/>
    <path d="M15.0096 20.2096C14.7907 19.8464 14.5208 19.4734 14.1852 19.0874L11.9077 19.1673L11.4601 21.2747C11.9618 21.3723 12.4038 21.4998 12.7997 21.6512C13.36 20.9297 14.1441 20.4286 15.0096 20.2096ZM17.4526 20.3552C18.0024 20.5657 18.4995 20.8939 18.9092 21.3167C19.1142 20.9457 19.2648 20.5795 19.4312 20.096L18.4956 18.1735L16.2109 18.775C16.3775 19.2587 16.4881 19.7056 16.5549 20.1244C16.8619 20.1668 17.1631 20.2443 17.4526 20.3552ZM19.7538 22.6125C20.0855 23.4276 20.1538 24.3513 19.8982 25.2472C20.3221 25.2393 20.78 25.192 21.2821 25.0944L22.2927 22.9321L20.7503 21.64C20.4148 22.0261 20.083 22.3453 19.7538 22.6125ZM16.9895 28.0691C17.2083 28.4323 17.4783 28.8052 17.8139 29.1913L19.7784 29.3629L20.5399 27.0037C20.0382 26.9061 19.5962 26.7786 19.2003 26.6273C18.6398 27.349 17.8554 27.8502 16.9895 28.0691ZM15.7892 29.5034C15.6227 29.0197 15.5121 28.5728 15.4453 28.154C15.1382 28.1116 14.837 28.0342 14.5475 27.9233C13.9977 27.7128 13.5006 27.3846 13.091 26.9618C12.8859 27.3328 12.6971 27.7202 12.5689 28.1824L13.5046 30.1049L15.7892 29.5034ZM12.2463 25.6659C11.9145 24.8508 11.8462 23.9271 12.1018 23.0312C11.6779 23.0391 11.22 23.0865 10.718 23.184L9.69456 25.2634L11.2497 26.6384C11.5853 26.2524 11.9171 25.9332 12.2463 25.6659Z" fill="#70709F"/>
    <path d="M15.3294 25.8862C15.2958 25.8733 15.2627 25.8594 15.2303 25.8447L14.2841 24.7556L16.6941 22.4836L17.7055 23.3694C17.9038 23.8088 17.9334 24.3241 17.7469 24.8098C17.3766 25.7746 16.2942 26.2565 15.3294 25.8862Z" fill="#A0AEFF"/>
    <path d="M15.1887 24.4042C15.5591 23.4394 16.6414 22.9575 17.6062 23.3279C17.6399 23.3408 17.6729 23.3548 17.7054 23.3695C17.5097 22.9359 17.1498 22.5762 16.6706 22.3923C15.7058 22.0219 14.6234 22.5038 14.2531 23.4686C13.8957 24.3998 14.3321 25.4403 15.2302 25.8447C15.0319 25.4053 15.0022 24.8899 15.1887 24.4042Z" fill="#8396FF"/>
    <path d="M6.64387 7.17403L6.64387 5.92655C6.64387 5.84384 6.67672 5.76451 6.73521 5.70602C6.7937 5.64753 6.87302 5.61468 6.95574 5.61468L8.82697 5.61468L8.82697 7.4859L6.95574 7.4859C6.87302 7.4859 6.7937 7.45305 6.73521 7.39456C6.67672 7.33607 6.64387 7.25675 6.64387 7.17403ZM6.64387 23.5864L6.64387 22.3389C6.64387 22.2562 6.67672 22.1769 6.73521 22.1184C6.7937 22.0599 6.87302 22.027 6.95574 22.027L8.82696 22.027L8.82696 23.8983L6.95574 23.8983C6.87302 23.8983 6.7937 23.8654 6.73521 23.8069C6.67672 23.7484 6.64387 23.6691 6.64387 23.5864ZM6.64387 19.8439L6.64387 9.79375C6.64387 9.71104 6.67672 9.63171 6.73521 9.57322C6.7937 9.51474 6.87302 9.48188 6.95574 9.48188L8.82697 9.48188L8.82696 20.1558L6.95574 20.1558C6.87302 20.1558 6.7937 20.1229 6.73521 20.0645C6.67672 20.006 6.64387 19.9266 6.64387 19.8439Z" fill="#7474A4"/>
    <path d="M21.6211 31.4206L23.3809 29.8465C23.4137 29.8173 23.4398 29.7814 23.4577 29.7414C23.4757 29.7013 23.4849 29.6579 23.4849 29.6141L23.4849 5.61469L15.9168 4.36259L8.51511 5.61469L8.5151 29.6141C8.51511 29.6579 8.52437 29.7013 8.54228 29.7414C8.5602 29.7814 8.58637 29.8173 8.61908 29.8465L10.3789 31.4206C10.4361 31.4717 10.5101 31.5 10.5868 31.5L12.5694 31.5L15.7892 30.8763L19.4306 31.5L21.4132 31.5C21.4899 31.5 21.5639 31.4717 21.6211 31.4206ZM15.9168 17.5063C13.5037 17.5063 12.5689 15.3963 12.5689 15.3963C10.8997 13.9798 10.2214 11.6127 11.0504 9.45314C11.381 8.592 11.9118 7.86683 12.5693 7.30996C12.5693 7.30996 14.1283 5.03673 15.9169 5.03673C17.821 5.03673 19.4312 7.30996 19.4312 7.30996C21.1004 8.72641 21.7787 11.0935 20.9498 13.2532C20.6192 14.1143 20.0883 14.8395 19.4308 15.3963C19.4307 15.3963 17.8397 17.5063 15.9168 17.5063ZM10.699 24.2323C10.6701 22.5796 11.4008 21.0905 12.5693 20.0976C12.5693 20.0976 13.7298 17.9018 15.9075 17.9018C18.1857 17.9018 19.4312 20.0985 19.4312 20.0985C20.5518 21.0507 21.2733 22.4614 21.301 24.0473C21.3299 25.7 20.5992 27.1891 19.4307 28.182C19.4307 28.182 18.6476 30.4083 16.0925 30.4083C13.0259 30.4083 12.5694 28.1823 12.5694 28.1823C11.4483 27.23 10.7267 25.8186 10.699 24.2323Z" fill="#9393C3"/>
    <path d="M23.4849 3.49396L23.4849 5.61468L8.51511 5.61468L8.51511 3.49396L23.4849 3.49396Z" fill="#7474A4"/>
    <path d="M19.4311 20.0985L19.4307 15.3963C18.7715 15.954 17.9866 16.3431 17.1436 16.5301L16.0154 17.185L14.8581 16.5313C14.6 16.4742 14.3466 16.3978 14.1 16.3027C13.5421 16.0891 13.0244 15.7826 12.5688 15.3962L12.5693 20.0976C13.2279 19.5376 14.0138 19.1477 14.8581 18.9619L15.9075 18.3078L17.1437 18.9625C17.9875 19.1485 18.7729 19.5386 19.4311 20.0985Z" fill="#A0AEFF"/>
    <path d="M17.1437 18.9625L17.1436 16.5302C16.4055 16.6939 15.6282 16.7025 14.8581 16.5314L14.8581 18.962C15.2029 18.8861 15.5545 18.8449 15.9075 18.8388C16.323 18.8316 16.7379 18.873 17.1437 18.9625Z" fill="#D8DEFF"/>
    <path d="M16.0925 30.0646L14.8563 29.3173C14.0127 29.1317 13.2274 28.7419 12.5694 28.1822L12.5694 31.5L14.8565 31.5L15.9937 30.8762L17.1436 31.5L19.4306 31.5L19.4307 28.182C18.7842 28.7313 18.0037 29.1286 17.1436 29.3177L16.0925 30.0646Z" fill="#A0AEFF"/>
    <path d="M16.0925 29.4408C15.677 29.4482 15.2621 29.4067 14.8563 29.3173L14.8565 31.5L17.1436 31.5L17.1436 29.3177C16.7982 29.3935 16.4461 29.4348 16.0925 29.4408Z" fill="#D8DEFF"/>
    <path d="M17.9 6.40346C18.4578 6.61704 18.9756 6.92353 19.4311 7.30995L19.4306 5.61468L15.9141 4.81548L12.5694 5.61468L12.5693 7.30995C13.2285 6.75224 14.0134 6.36312 14.8564 6.17611L15.9995 5.52112L17.1436 6.17561C17.401 6.23281 17.6538 6.30897 17.9 6.40346Z" fill="#A0AEFF"/>
    <path d="M19.4306 3.70428L19.4306 5.61468L12.5694 5.61468L12.5694 3.70428L19.4306 3.70428Z" fill="#8396FF"/>
    <path d="M17.1436 6.17562L17.1435 5.61468L15.9323 4.78885L14.8565 5.61468L14.8564 6.17605C15.6096 6.00847 16.3904 6.00832 17.1436 6.17562Z" fill="#C4E2FF"/>
    <path d="M17.1435 3.70428L17.1435 5.61468L14.8564 5.61468L14.8564 3.70428L17.1435 3.70428Z" fill="#D8DEFF"/>
    <path d="M6.64387 3.74345L6.64387 3.49396C6.64387 3.32174 6.73013 2.92398 6.95574 2.92398L16.0002 2.73811L25.3561 3.18209L25.3561 3.74345C25.3561 3.82617 25.3233 3.90549 25.2648 3.96398C25.2063 4.02247 25.127 4.05533 25.0443 4.05533L6.95574 4.05532C6.87302 4.05532 6.7937 4.02247 6.73521 3.96398C6.67672 3.90549 6.64387 3.82617 6.64387 3.74345Z" fill="#F2F4FF"/>
    <path d="M6.95574 3.18208L25.3561 3.18208L25.3561 2.30885L6.95574 2.30884C6.87302 2.30884 6.7937 2.3417 6.73521 2.40019C6.67672 2.45868 6.64387 2.538 6.64387 2.62072L6.64387 3.49396C6.64387 3.41124 6.67672 3.33192 6.73521 3.27343C6.7937 3.21494 6.87302 3.18208 6.95574 3.18208Z" fill="#D8DEFF"/>
    <path d="M8.51511 11.6373L8.51511 4.16479M23.4849 10.7083L23.4849 29.614C23.4849 29.6579 23.4757 29.7013 23.4577 29.7414C23.4398 29.7814 23.4137 29.8173 23.3809 29.8465L21.6211 31.4206C21.5639 31.4717 21.4899 31.5 21.4132 31.5L10.5868 31.5C10.5101 31.5 10.436 31.4717 10.3789 31.4206L8.61908 29.8465C8.58638 29.8173 8.56022 29.7814 8.5423 29.7414C8.52438 29.7013 8.51512 29.6579 8.5151 29.614L8.51511 13.8204M23.4849 4.15419L23.4849 8.52519M17.1435 29.3282L17.1435 31.5M17.1435 16.5428L17.1435 18.9528M17.1435 4.1177L17.1435 6.16744M19.4306 28.2041L19.4306 31.5M19.4306 15.428L19.4306 20.0822M19.4306 4.1177L19.4306 7.29217M14.8565 29.3328L14.8565 31.5M14.8565 16.5455L14.8565 18.9475M14.8565 4.1177L14.8565 6.16744M12.5694 28.1922L12.5694 31.5M12.5694 15.4227L12.5694 20.0762M12.5694 4.1177L12.5694 7.30009" stroke="black" stroke-miterlimit="10" stroke-linecap="round" stroke-linejoin="round"/>
    <path d="M10.6982 11.3531C10.6982 14.2812 13.0719 16.6549 16 16.6549C18.9281 16.6549 21.3018 14.2812 21.3018 11.3531C21.3018 8.425 18.9281 6.0513 16 6.0513C13.0719 6.0513 10.6982 8.425 10.6982 11.3531Z" stroke="black" stroke-miterlimit="10" stroke-linecap="round" stroke-linejoin="round"/>
    <path d="M15.8039 9.48725C15.6075 8.51246 15.2029 7.52084 14.2219 6.39236M17.7867 16.3329C16.8061 15.2048 16.3918 14.1946 16.1953 13.2202M17.3054 12.7056C18.0598 13.352 19.0158 13.8961 20.482 14.1811M11.518 8.52519C12.9853 8.81036 13.9416 9.35514 14.6964 10.0022M16.5179 9.54981C16.7011 8.57222 16.695 7.47131 16.2081 6.05741M15.7919 16.6488C15.306 15.2377 15.2989 14.1383 15.481 13.1621M14.4804 12.4564C13.7347 13.1137 13.0623 13.9849 12.5757 15.398M19.4243 7.30826C18.9374 8.72235 18.2644 9.59372 17.518 10.2513M14.2839 10.5884C13.3421 10.2715 12.2519 10.1251 10.7854 10.4101M21.2145 12.2961C19.7461 12.5815 18.6549 12.4342 17.7123 12.1165M17.8194 10.9005C18.7577 10.5705 19.7083 10.0147 20.6897 8.88577M11.3103 13.8204C12.2905 12.6928 13.2399 12.137 14.1772 11.8069" stroke="black" stroke-miterlimit="10" stroke-linecap="round" stroke-linejoin="round"/>
    <path d="M14.1288 11.3531C14.1288 12.3866 14.9665 13.2243 16 13.2243C17.0334 13.2243 17.8712 12.3866 17.8712 11.3531C17.8712 10.3197 17.0334 9.48189 16 9.48189C14.9665 9.48189 14.1288 10.3197 14.1288 11.3531Z" stroke="black" stroke-miterlimit="10" stroke-linecap="round" stroke-linejoin="round"/>
    <path d="M10.6982 24.1398C10.6982 27.0679 13.0719 29.4416 16 29.4416C18.9281 29.4416 21.3018 27.0679 21.3018 24.1398C21.3018 21.2117 18.9281 18.838 16 18.838C13.0719 18.838 10.6982 21.2117 10.6982 24.1398Z" stroke="black" stroke-miterlimit="10" stroke-linecap="round" stroke-linejoin="round"/>
    <path d="M15.1195 22.4836C14.5722 21.6533 13.8029 20.8657 12.4706 20.1868M19.5286 28.0934C18.2008 27.4168 17.4322 26.6323 16.8853 25.805M17.7161 24.9045C18.658 25.2214 19.7484 25.3679 21.215 25.0829M10.785 23.1968C12.2522 22.9116 13.3429 23.0584 14.2851 23.3756M15.8049 22.2748C15.6087 21.2995 15.1906 20.2807 14.2092 19.1518M17.7908 29.1278C16.8116 28.0013 16.3932 26.9845 16.1964 26.0111M15.0053 25.7301C14.5596 26.6193 14.262 27.6794 14.3403 29.1729M17.6597 19.1068C17.738 20.6009 17.4402 21.6612 16.9942 22.5507M14.1219 24.0737C13.1301 24.1328 12.0646 24.4054 10.8118 25.2189M21.1881 23.0608C19.9358 23.874 18.8705 24.1467 17.879 24.2059M17.5193 23.0369C18.2649 22.3797 18.9373 21.5086 19.4239 20.0954M12.5761 28.1842C13.0619 26.7732 13.7331 25.9026 14.4774 25.2457" stroke="black" stroke-miterlimit="10" stroke-linecap="round" stroke-linejoin="round"/>
    <path d="M14.1288 24.1398C14.1288 25.1733 14.9665 26.0111 16 26.0111C17.0334 26.0111 17.8712 25.1733 17.8712 24.1398C17.8712 23.1064 17.0334 22.2686 16 22.2686C14.9665 22.2686 14.1288 23.1064 14.1288 24.1398Z" stroke="black" stroke-miterlimit="10" stroke-linecap="round" stroke-linejoin="round"/>
    <path d="M25.3561 2.30885L6.95574 2.30884C6.87302 2.30884 6.7937 2.3417 6.73521 2.40019C6.67672 2.45868 6.64387 2.538 6.64387 2.62072L6.64387 3.74345C6.64387 3.82617 6.67672 3.90549 6.73521 3.96398C6.7937 4.02247 6.87302 4.05532 6.95574 4.05532L25.0443 4.05532C25.127 4.05532 25.2063 4.02247 25.2648 3.96398C25.3233 3.90549 25.3561 3.82617 25.3561 3.74345L25.3561 2.30885ZM25.3561 2.30885L25.3561 0.499992M15.2931 0.499992L16.0624 0.499992C16.1451 0.499992 16.2244 0.53285 16.2829 0.591337C16.3414 0.649824 16.3742 0.72915 16.3742 0.811863L16.3742 2.26038M12.0081 2.27635L12.0081 0.811863C12.0081 0.72915 12.0409 0.649824 12.0994 0.591337C12.1579 0.53285 12.2372 0.499992 12.3199 0.499992L13.11 0.499992M18.2455 2.27105L18.2455 0.811863C18.2455 0.72915 18.2783 0.649824 18.3368 0.591337C18.3953 0.53285 18.4746 0.499992 18.5573 0.499992L19.5553 0.499992C19.638 0.499992 19.7174 0.53285 19.7759 0.591337C19.8343 0.649824 19.8672 0.72915 19.8672 0.811863L19.8672 2.26574M21.7384 2.27105L21.7384 0.811863C21.7384 0.770908 21.7465 0.730353 21.7622 0.692516C21.7778 0.654678 21.8008 0.620297 21.8298 0.591337C21.8587 0.562377 21.8931 0.539405 21.931 0.523732C21.9688 0.508059 22.0093 0.499992 22.0503 0.499992L23.0483 0.499992C23.131 0.499992 23.2103 0.53285 23.2688 0.591337C23.3273 0.649824 23.3602 0.72915 23.3602 0.811864L23.3602 2.27105M8.51509 2.27105L8.51509 0.811863C8.51509 0.729149 8.54795 0.649824 8.60644 0.591337C8.66493 0.532849 8.74425 0.499992 8.82696 0.499992L9.82495 0.499992C9.90767 0.499992 9.98699 0.532849 10.0455 0.591337C10.104 0.649824 10.1368 0.72915 10.1368 0.811863L10.1368 2.26038M8.49781 7.61066L6.95574 7.61066C6.87302 7.61066 6.7937 7.5778 6.73521 7.51931C6.67672 7.46082 6.64387 7.3815 6.64387 7.29878L6.64387 6.0513C6.64387 5.96859 6.67672 5.88926 6.73521 5.83077C6.7937 5.77229 6.87302 5.73943 6.95574 5.73943L8.48989 5.73943M8.48721 23.8983L6.95574 23.8983C6.87302 23.8983 6.7937 23.8654 6.73521 23.8069C6.67672 23.7484 6.64386 23.6691 6.64386 23.5864L6.64386 22.3389C6.64386 22.2562 6.67672 22.1769 6.73521 22.1184C6.7937 22.0599 6.87302 22.027 6.95574 22.027L8.48191 22.027M8.48721 20.1558L6.95574 20.1558C6.87302 20.1558 6.7937 20.1229 6.73521 20.0645C6.67672 20.006 6.64386 19.9266 6.64386 19.8439L6.64387 9.79375C6.64387 9.71104 6.67672 9.63172 6.73521 9.57323C6.7937 9.51474 6.87302 9.48188 6.95574 9.48188L8.47131 9.48188" stroke="black" stroke-miterlimit="10" stroke-linecap="round" stroke-linejoin="round"/>
</svg>
