<svg width="81" height="80" viewBox="0 0 81 80" fill="none" xmlns="http://www.w3.org/2000/svg">
<g id="Frame" clip-path="url(#clip0_2079_3577)">
<g id="Group">
<path id="Vector" d="M57.6891 25.9392C57.6891 25.8184 57.6855 25.6978 57.6835 25.577C46.6452 21.2042 34.3551 21.2042 23.3168 25.577C23.3146 25.6978 23.3112 25.8184 23.3112 25.9392V49.7721C23.3111 57.4108 25.0338 64.9512 28.351 71.832H52.6493C55.9665 64.9511 57.6891 57.4107 57.6891 49.772V25.9392Z" fill="url(#paint0_linear_2079_3577)"/>
<path id="Vector_2" d="M57.6834 25.5769C50.2226 22.6213 42.1903 21.6665 34.3589 22.7062V71.8319H52.6492C55.9664 64.9511 57.6891 57.4107 57.689 49.7719V25.9391C57.689 25.8185 57.6854 25.6977 57.6834 25.5769Z" fill="url(#paint1_linear_2079_3577)"/>
<path id="Vector_3" d="M44.622 22.4819L33.6945 33.4094L57.1863 56.9013C57.5211 54.5396 57.6892 52.1572 57.6891 49.7719V30.1815L51.006 23.4983C48.9041 23.0123 46.7709 22.6726 44.622 22.4819Z" fill="url(#paint2_linear_2079_3577)"/>
<path id="Vector_4" d="M23.3441 51.5713C23.5927 58.5986 25.2976 65.4978 28.3508 71.8321H52.6491C55.7023 65.4978 57.4072 58.5986 57.6558 51.5713H23.3441Z" fill="url(#paint3_linear_2079_3577)"/>
<path id="Vector_5" d="M27.7788 48.0181L23.3809 52.4159C23.7317 59.1538 25.4212 65.7543 28.3509 71.8321H51.5929L27.7788 48.0181Z" fill="url(#paint4_linear_2079_3577)"/>
<path id="Vector_6" d="M51.2697 71.0522H29.7304C29.3909 71.0522 29.0618 71.1685 28.7977 71.3818L28.0972 71.9474C27.4693 72.4545 26.9628 73.0957 26.6149 73.824C26.2669 74.5523 26.0863 75.3492 26.0863 76.1563V78.5157C26.0863 78.9094 26.2427 79.2869 26.5211 79.5653C26.7994 79.8437 27.177 80.0001 27.5707 80.0001H53.4293C53.823 80.0001 54.2005 79.8437 54.4789 79.5653C54.7573 79.2869 54.9136 78.9094 54.9136 78.5157V76.1563C54.9136 75.3492 54.733 74.5523 54.3851 73.824C54.0371 73.0957 53.5306 72.4545 52.9027 71.9474L52.2022 71.3818C51.9382 71.1686 51.6091 71.0523 51.2697 71.0522Z" fill="url(#paint5_linear_2079_3577)"/>
<path id="Vector_7" d="M30.993 79.9998H28.7488V76.8632C28.7488 76.5657 28.867 76.2803 29.0774 76.0698C29.2878 75.8594 29.5732 75.7412 29.8708 75.7412C30.1684 75.7412 30.4538 75.8594 30.6642 76.0698C30.8746 76.2803 30.9928 76.5657 30.9928 76.8632L30.993 79.9998Z" fill="url(#paint6_linear_2079_3577)"/>
<path id="Vector_8" d="M35.2447 79.9998H33.0005V76.8632C33.0005 76.5657 33.1187 76.2803 33.3291 76.0698C33.5395 75.8594 33.8249 75.7412 34.1225 75.7412C34.4201 75.7412 34.7055 75.8594 34.9159 76.0698C35.1263 76.2803 35.2446 76.5657 35.2446 76.8632L35.2447 79.9998Z" fill="url(#paint7_linear_2079_3577)"/>
<path id="Vector_9" d="M39.4963 79.9998H37.2521V76.8632C37.2521 76.5657 37.3703 76.2803 37.5807 76.0698C37.7911 75.8594 38.0765 75.7412 38.3741 75.7412C38.6717 75.7412 38.9571 75.8594 39.1675 76.0698C39.3779 76.2803 39.4961 76.5657 39.4961 76.8632V79.9998H39.4963Z" fill="url(#paint8_linear_2079_3577)"/>
<path id="Vector_10" d="M43.748 79.9998H41.5038V76.8632C41.5038 76.5657 41.622 76.2803 41.8324 76.0698C42.0428 75.8594 42.3282 75.7412 42.6258 75.7412C42.9234 75.7412 43.2088 75.8594 43.4192 76.0698C43.6296 76.2803 43.7478 76.5657 43.7478 76.8632L43.748 79.9998Z" fill="url(#paint9_linear_2079_3577)"/>
<path id="Vector_11" d="M47.9996 79.9998H45.7554V76.8632C45.7554 76.5657 45.8736 76.2803 46.084 76.0698C46.2944 75.8594 46.5798 75.7412 46.8774 75.7412C47.175 75.7412 47.4604 75.8594 47.6708 76.0698C47.8812 76.2803 47.9994 76.5657 47.9994 76.8632V79.9998H47.9996Z" fill="url(#paint10_linear_2079_3577)"/>
<path id="Vector_12" d="M52.2512 79.9998H50.007V76.8632C50.007 76.5657 50.1252 76.2803 50.3356 76.0698C50.546 75.8594 50.8314 75.7412 51.129 75.7412C51.4266 75.7412 51.712 75.8594 51.9224 76.0698C52.1328 76.2803 52.251 76.5657 52.251 76.8632V79.9998H52.2512Z" fill="url(#paint11_linear_2079_3577)"/>
<path id="Vector_13" d="M26.0864 76.0747V78.5158C26.0864 78.9095 26.2428 79.287 26.5212 79.5654C26.7996 79.8438 27.1771 80.0002 27.5708 80.0002H53.4294C53.8231 80.0002 54.2006 79.8438 54.479 79.5654C54.7574 79.287 54.9138 78.9095 54.9138 78.5158V76.0747H26.0864Z" fill="url(#paint12_linear_2079_3577)"/>
<path id="Vector_14" d="M52.9027 71.9474L52.2023 71.3818C51.9382 71.1685 51.609 71.0522 51.2696 71.0522H42.1549V80.0001H53.4293C53.823 80.0001 54.2005 79.8437 54.4789 79.5653C54.7573 79.2869 54.9137 78.9094 54.9137 78.5157V76.1563C54.9137 75.3492 54.7331 74.5522 54.3852 73.824C54.0372 73.0957 53.5307 72.4545 52.9027 71.9474Z" fill="url(#paint13_linear_2079_3577)"/>
<path id="Vector_15" d="M57.6835 25.5769C57.5644 18.818 54.1172 12.0861 47.4086 5.52426L42.6622 0.881602C41.4605 -0.293867 39.5397 -0.293867 38.338 0.881602L33.5916 5.5241C26.883 12.0861 23.4357 18.8179 23.3168 25.5768C34.6323 23.0436 46.368 23.0437 57.6835 25.5769Z" fill="url(#paint14_linear_2079_3577)"/>
<path id="Vector_16" d="M47.4085 5.52426L42.6622 0.881602C41.4605 -0.293867 39.5397 -0.293867 38.338 0.881602L35.2655 3.88691V23.8522C42.7616 23.3522 50.3118 23.9264 57.6835 25.5769C57.5644 18.818 54.1172 12.0863 47.4085 5.52426Z" fill="url(#paint15_linear_2079_3577)"/>
<path id="Vector_17" d="M43.3715 23.7326C46.2721 23.8378 49.1647 24.1036 52.036 24.5287L47.3057 19.7983L43.3715 23.7326Z" fill="url(#paint16_linear_2079_3577)"/>
<path id="Vector_18" d="M40.5001 36.2284C45.8156 36.2284 50.1247 31.9193 50.1247 26.6037C50.1247 21.2881 45.8156 16.979 40.5001 16.979C35.1845 16.979 30.8754 21.2881 30.8754 26.6037C30.8754 31.9193 35.1845 36.2284 40.5001 36.2284Z" fill="url(#paint17_linear_2079_3577)"/>
<path id="Vector_19" d="M40.5 34.3629C44.7852 34.3629 48.2591 30.889 48.2591 26.6038C48.2591 22.3186 44.7852 18.8447 40.5 18.8447C36.2148 18.8447 32.741 22.3186 32.741 26.6038C32.741 30.889 36.2148 34.3629 40.5 34.3629Z" fill="url(#paint18_linear_2079_3577)"/>
<path id="Vector_20" d="M30.8754 26.6038C30.8754 31.9194 35.1844 36.2285 40.5001 36.2285C45.8157 36.2285 50.1247 31.9193 50.1247 26.6038C50.1258 25.4861 49.9317 24.3767 49.5513 23.3257H31.4488C31.0684 24.3767 30.8744 25.4861 30.8754 26.6038Z" fill="url(#paint19_linear_2079_3577)"/>
<path id="Vector_21" d="M33.6944 33.4096C37.453 37.1682 43.5471 37.1684 47.3059 33.4096C51.0646 29.6509 51.0644 23.557 47.3059 19.7982C46.5162 19.0071 45.5946 18.3599 44.5824 17.8857L31.7821 30.6861C32.2562 31.6983 32.9033 32.62 33.6944 33.4096Z" fill="url(#paint20_linear_2079_3577)"/>
<path id="Vector_22" d="M40.5 33.1629C44.1226 33.1629 47.0592 30.2262 47.0592 26.6037C47.0592 22.9811 44.1226 20.0444 40.5 20.0444C36.8775 20.0444 33.9408 22.9811 33.9408 26.6037C33.9408 30.2262 36.8775 33.1629 40.5 33.1629Z" fill="url(#paint21_linear_2079_3577)"/>
<path id="Vector_23" d="M47.0592 26.6037C47.0592 22.9812 44.1225 20.0444 40.5 20.0444C36.8775 20.0444 33.9408 22.9812 33.9408 26.6037C33.9408 27.3882 34.0791 28.1404 34.3316 28.8377H46.6683C46.9276 28.1214 47.0599 27.3654 47.0592 26.6037Z" fill="url(#paint22_linear_2079_3577)"/>
<path id="Vector_24" d="M45.1382 21.9656C42.5766 19.404 38.4237 19.404 35.8621 21.9656C33.3005 24.5272 33.3005 28.6801 35.8621 31.2417C36.4002 31.7808 37.0283 32.2219 37.7182 32.545L46.4416 23.8215C46.1184 23.1318 45.6773 22.5038 45.1382 21.9656Z" fill="url(#paint23_linear_2079_3577)"/>
<path id="Vector_25" d="M64.7384 64.7757V77.8337C64.7384 79.2154 63.0675 79.908 62.0889 78.9312L51.6623 68.503C51.3743 68.2144 51.1663 67.8557 51.0589 67.4623C50.9514 67.0689 50.9482 66.6543 51.0495 66.2593C51.4843 64.5503 51.8495 62.8244 52.1444 61.0858C52.7706 57.3847 53.0905 53.5901 53.0905 49.7716V48.3854C53.0905 47.8665 53.7178 47.6066 54.0847 47.9735L60.3905 54.2793C61.7689 55.6576 62.8624 57.294 63.6084 59.095C64.3544 60.896 64.7384 62.8263 64.7384 64.7757Z" fill="url(#paint24_linear_2079_3577)"/>
<path id="Vector_26" d="M64.7384 64.7757V77.8337C64.7384 79.2154 63.0675 79.908 62.0889 78.9312L51.6623 68.503C51.3743 68.2144 51.1663 67.8557 51.0589 67.4623C50.9514 67.0689 50.9482 66.6543 51.0495 66.2593C51.4843 64.5503 51.8495 62.8244 52.1444 61.0858C52.7706 57.3847 53.0905 53.5901 53.0905 49.7716V48.3854C53.0905 47.8665 53.7178 47.6066 54.0847 47.9735L60.3905 54.2793C61.7689 55.6576 62.8624 57.294 63.6084 59.095C64.3544 60.896 64.7384 62.8263 64.7384 64.7757Z" fill="url(#paint25_linear_2079_3577)"/>
<path id="Vector_27" d="M52.1445 61.0857C51.8499 62.8243 51.4846 64.5503 51.0497 66.2592C50.9483 66.6542 50.9515 67.0688 51.059 67.4622C51.1664 67.8556 51.3744 68.2143 51.6625 68.5029L62.0891 78.9311C63.0675 79.9078 64.7385 79.2153 64.7385 77.8335V64.7756C64.7385 61.9676 63.9391 59.2439 62.4728 56.9014H52.7174C52.5703 58.3018 52.3793 59.6973 52.1445 61.0857Z" fill="url(#paint26_linear_2079_3577)"/>
<path id="Vector_28" d="M16.2616 64.7757V77.8337C16.2616 79.2154 17.9325 79.908 18.9111 78.9312L29.3377 68.503C29.6257 68.2144 29.8337 67.8557 29.9412 67.4623C30.0486 67.0689 30.0518 66.6543 29.9505 66.2593C29.5157 64.5503 29.1505 62.8244 28.8557 61.0858C28.2294 57.3847 27.9096 53.5901 27.9096 49.7716V48.3854C27.9096 47.8665 27.2822 47.6066 26.9153 47.9735L20.6096 54.2793C19.2311 55.6576 18.1376 57.294 17.3916 59.095C16.6456 60.896 16.2616 62.8263 16.2616 64.7757Z" fill="url(#paint27_linear_2079_3577)"/>
<path id="Vector_29" d="M16.2616 64.7757V77.8337C16.2616 79.2154 17.9325 79.908 18.9111 78.9312L29.3377 68.503C29.6257 68.2144 29.8337 67.8557 29.9412 67.4623C30.0486 67.0689 30.0518 66.6543 29.9505 66.2593C29.5157 64.5503 29.1505 62.8244 28.8557 61.0858C28.2294 57.3847 27.9096 53.5901 27.9096 49.7716V48.3854C27.9096 47.8665 27.2822 47.6066 26.9153 47.9735L20.6096 54.2793C19.2311 55.6576 18.1376 57.294 17.3916 59.095C16.6456 60.896 16.2616 62.8263 16.2616 64.7757Z" fill="url(#paint28_linear_2079_3577)"/>
<path id="Vector_30" d="M16.2616 64.7758V77.8338C16.2616 79.2155 17.9325 79.9082 18.9111 78.9313L29.3377 68.5032C29.6257 68.2145 29.8337 67.8558 29.9412 67.4624C30.0486 67.069 30.0518 66.6545 29.9505 66.2594C29.5157 64.5505 29.1505 62.8246 28.8557 61.086C28.6722 59.9942 28.5157 58.8979 28.3864 57.7983H18.0043C16.8601 59.9461 16.2617 62.3423 16.2616 64.7758Z" fill="url(#paint29_linear_2079_3577)"/>
</g>
</g>
<defs>
<linearGradient id="paint0_linear_2079_3577" x1="31.6262" y1="47.0648" x2="47.7202" y2="47.0648" gradientUnits="userSpaceOnUse">
<stop stop-color="#F5FBFF"/>
<stop offset="1" stop-color="#DBD5EF"/>
</linearGradient>
<linearGradient id="paint1_linear_2079_3577" x1="40.8453" y1="47.066" x2="57.5028" y2="47.066" gradientUnits="userSpaceOnUse">
<stop stop-color="#DBD5EF" stop-opacity="0"/>
<stop offset="0.285" stop-color="#D9D2EE" stop-opacity="0.285"/>
<stop offset="0.474" stop-color="#D4C9E9" stop-opacity="0.474"/>
<stop offset="0.635" stop-color="#CBBAE2" stop-opacity="0.635"/>
<stop offset="0.779" stop-color="#BFA5D7" stop-opacity="0.78"/>
<stop offset="0.913" stop-color="#AF8ACA" stop-opacity="0.913"/>
<stop offset="1" stop-color="#A274BF"/>
</linearGradient>
<linearGradient id="paint2_linear_2079_3577" x1="56.7432" y1="46.6646" x2="43.3996" y2="28.7115" gradientUnits="userSpaceOnUse">
<stop stop-color="#DBD5EF" stop-opacity="0"/>
<stop offset="0.285" stop-color="#D9D2EE" stop-opacity="0.285"/>
<stop offset="0.474" stop-color="#D4C9E9" stop-opacity="0.474"/>
<stop offset="0.635" stop-color="#CBBAE2" stop-opacity="0.635"/>
<stop offset="0.779" stop-color="#BFA5D7" stop-opacity="0.78"/>
<stop offset="0.913" stop-color="#AF8ACA" stop-opacity="0.913"/>
<stop offset="1" stop-color="#A274BF"/>
</linearGradient>
<linearGradient id="paint3_linear_2079_3577" x1="40.5001" y1="59.82" x2="40.5001" y2="72.5843" gradientUnits="userSpaceOnUse">
<stop stop-color="#DBD5EF" stop-opacity="0"/>
<stop offset="0.285" stop-color="#D9D2EE" stop-opacity="0.285"/>
<stop offset="0.474" stop-color="#D4C9E9" stop-opacity="0.474"/>
<stop offset="0.635" stop-color="#CBBAE2" stop-opacity="0.635"/>
<stop offset="0.779" stop-color="#BFA5D7" stop-opacity="0.78"/>
<stop offset="0.913" stop-color="#AF8ACA" stop-opacity="0.913"/>
<stop offset="1" stop-color="#A274BF"/>
</linearGradient>
<linearGradient id="paint4_linear_2079_3577" x1="35.2654" y1="59.9251" x2="27.5827" y2="59.9251" gradientUnits="userSpaceOnUse">
<stop stop-color="#DBD5EF" stop-opacity="0"/>
<stop offset="0.285" stop-color="#D9D2EE" stop-opacity="0.285"/>
<stop offset="0.474" stop-color="#D4C9E9" stop-opacity="0.474"/>
<stop offset="0.635" stop-color="#CBBAE2" stop-opacity="0.635"/>
<stop offset="0.779" stop-color="#BFA5D7" stop-opacity="0.78"/>
<stop offset="0.913" stop-color="#AF8ACA" stop-opacity="0.913"/>
<stop offset="1" stop-color="#A274BF"/>
</linearGradient>
<linearGradient id="paint5_linear_2079_3577" x1="40.5001" y1="71.6496" x2="40.5001" y2="73.929" gradientUnits="userSpaceOnUse">
<stop stop-color="#FEF0AE"/>
<stop offset="1" stop-color="#FAC600"/>
</linearGradient>
<linearGradient id="paint6_linear_2079_3577" x1="31.0233" y1="77.8704" x2="28.6833" y2="77.8704" gradientUnits="userSpaceOnUse">
<stop stop-color="#FEF0AE"/>
<stop offset="1" stop-color="#FAC600"/>
</linearGradient>
<linearGradient id="paint7_linear_2079_3577" x1="35.275" y1="77.8704" x2="32.9349" y2="77.8704" gradientUnits="userSpaceOnUse">
<stop stop-color="#FEF0AE"/>
<stop offset="1" stop-color="#FAC600"/>
</linearGradient>
<linearGradient id="paint8_linear_2079_3577" x1="39.5266" y1="77.8704" x2="37.1866" y2="77.8704" gradientUnits="userSpaceOnUse">
<stop stop-color="#FEF0AE"/>
<stop offset="1" stop-color="#FAC600"/>
</linearGradient>
<linearGradient id="paint9_linear_2079_3577" x1="43.7783" y1="77.8704" x2="41.4382" y2="77.8704" gradientUnits="userSpaceOnUse">
<stop stop-color="#FEF0AE"/>
<stop offset="1" stop-color="#FAC600"/>
</linearGradient>
<linearGradient id="paint10_linear_2079_3577" x1="48.0299" y1="77.8704" x2="45.6899" y2="77.8704" gradientUnits="userSpaceOnUse">
<stop stop-color="#FEF0AE"/>
<stop offset="1" stop-color="#FAC600"/>
</linearGradient>
<linearGradient id="paint11_linear_2079_3577" x1="52.2816" y1="77.8704" x2="49.9415" y2="77.8704" gradientUnits="userSpaceOnUse">
<stop stop-color="#FEF0AE"/>
<stop offset="1" stop-color="#FAC600"/>
</linearGradient>
<linearGradient id="paint12_linear_2079_3577" x1="40.5" y1="77.1105" x2="40.5" y2="79.9836" gradientUnits="userSpaceOnUse">
<stop stop-color="#FE9738" stop-opacity="0"/>
<stop offset="1" stop-color="#FE9738"/>
</linearGradient>
<linearGradient id="paint13_linear_2079_3577" x1="45.9751" y1="75.5262" x2="54.9776" y2="75.5262" gradientUnits="userSpaceOnUse">
<stop stop-color="#FE9738" stop-opacity="0"/>
<stop offset="1" stop-color="#FE9738"/>
</linearGradient>
<linearGradient id="paint14_linear_2079_3577" x1="32.1115" y1="12.7885" x2="48.8577" y2="12.7885" gradientUnits="userSpaceOnUse">
<stop stop-color="#FFA1AE"/>
<stop offset="1" stop-color="#FF4565"/>
</linearGradient>
<linearGradient id="paint15_linear_2079_3577" x1="39.0652" y1="14.9693" x2="52.7727" y2="11.9366" gradientUnits="userSpaceOnUse">
<stop stop-color="#FE0364" stop-opacity="0"/>
<stop offset="0.234" stop-color="#F90362" stop-opacity="0.234"/>
<stop offset="0.517" stop-color="#EA035B" stop-opacity="0.517"/>
<stop offset="0.824" stop-color="#D20250" stop-opacity="0.824"/>
<stop offset="1" stop-color="#C00148"/>
</linearGradient>
<linearGradient id="paint16_linear_2079_3577" x1="58.6349" y1="24.3487" x2="48.0205" y2="22.2865" gradientUnits="userSpaceOnUse">
<stop stop-color="#FE0364" stop-opacity="0"/>
<stop offset="0.234" stop-color="#F90362" stop-opacity="0.234"/>
<stop offset="0.517" stop-color="#EA035B" stop-opacity="0.517"/>
<stop offset="0.824" stop-color="#D20250" stop-opacity="0.824"/>
<stop offset="1" stop-color="#C00148"/>
</linearGradient>
<linearGradient id="paint17_linear_2079_3577" x1="34.6127" y1="20.7163" x2="45.2332" y2="31.3368" gradientUnits="userSpaceOnUse">
<stop stop-color="#B3DAFE"/>
<stop offset="1" stop-color="#0182FC"/>
</linearGradient>
<linearGradient id="paint18_linear_2079_3577" x1="45.9305" y1="32.0344" x2="34.2428" y2="20.3466" gradientUnits="userSpaceOnUse">
<stop stop-color="#B3DAFE"/>
<stop offset="1" stop-color="#0182FC"/>
</linearGradient>
<linearGradient id="paint19_linear_2079_3577" x1="40.5001" y1="26.7257" x2="40.5001" y2="38.0479" gradientUnits="userSpaceOnUse">
<stop stop-color="#314DC9" stop-opacity="0"/>
<stop offset="0.276" stop-color="#304BC4" stop-opacity="0.276"/>
<stop offset="0.563" stop-color="#2B45B8" stop-opacity="0.563"/>
<stop offset="0.854" stop-color="#243BA3" stop-opacity="0.854"/>
<stop offset="1" stop-color="#1F3596"/>
</linearGradient>
<linearGradient id="paint20_linear_2079_3577" x1="40.6723" y1="26.7515" x2="49.0995" y2="35.1786" gradientUnits="userSpaceOnUse">
<stop stop-color="#314DC9" stop-opacity="0"/>
<stop offset="0.276" stop-color="#304BC4" stop-opacity="0.276"/>
<stop offset="0.563" stop-color="#2B45B8" stop-opacity="0.563"/>
<stop offset="0.854" stop-color="#243BA3" stop-opacity="0.854"/>
<stop offset="1" stop-color="#1F3596"/>
</linearGradient>
<linearGradient id="paint21_linear_2079_3577" x1="44.5122" y1="30.6158" x2="37.2744" y2="23.3782" gradientUnits="userSpaceOnUse">
<stop stop-color="#5A5A5A"/>
<stop offset="1" stop-color="#444444"/>
</linearGradient>
<linearGradient id="paint22_linear_2079_3577" x1="39.7495" y1="24.4072" x2="38.1669" y2="19.7765" gradientUnits="userSpaceOnUse">
<stop stop-color="#433F43" stop-opacity="0"/>
<stop offset="1" stop-color="#1A1A1A"/>
</linearGradient>
<linearGradient id="paint23_linear_2079_3577" x1="37.2788" y1="25.0572" x2="34.3479" y2="23.6503" gradientUnits="userSpaceOnUse">
<stop stop-color="#433F43" stop-opacity="0"/>
<stop offset="1" stop-color="#1A1A1A"/>
</linearGradient>
<linearGradient id="paint24_linear_2079_3577" x1="51.7214" y1="58.0438" x2="65.065" y2="69.386" gradientUnits="userSpaceOnUse">
<stop stop-color="#FFA1AE"/>
<stop offset="1" stop-color="#FF4565"/>
</linearGradient>
<linearGradient id="paint25_linear_2079_3577" x1="58.1112" y1="63.5951" x2="64.6056" y2="63.5951" gradientUnits="userSpaceOnUse">
<stop stop-color="#FE0364" stop-opacity="0"/>
<stop offset="0.234" stop-color="#F90362" stop-opacity="0.234"/>
<stop offset="0.517" stop-color="#EA035B" stop-opacity="0.517"/>
<stop offset="0.824" stop-color="#D20250" stop-opacity="0.824"/>
<stop offset="1" stop-color="#C00148"/>
</linearGradient>
<linearGradient id="paint26_linear_2079_3577" x1="57.4889" y1="69.0382" x2="54.4158" y2="72.4348" gradientUnits="userSpaceOnUse">
<stop stop-color="#FE0364" stop-opacity="0"/>
<stop offset="0.234" stop-color="#F90362" stop-opacity="0.234"/>
<stop offset="0.517" stop-color="#EA035B" stop-opacity="0.517"/>
<stop offset="0.824" stop-color="#D20250" stop-opacity="0.824"/>
<stop offset="1" stop-color="#C00148"/>
</linearGradient>
<linearGradient id="paint27_linear_2079_3577" x1="18.0649" y1="60.3891" x2="29.4677" y2="68.7997" gradientUnits="userSpaceOnUse">
<stop stop-color="#FFA1AE"/>
<stop offset="1" stop-color="#FF4565"/>
</linearGradient>
<linearGradient id="paint28_linear_2079_3577" x1="24.6128" y1="63.2441" x2="30.5972" y2="62.1929" gradientUnits="userSpaceOnUse">
<stop stop-color="#FE0364" stop-opacity="0"/>
<stop offset="0.234" stop-color="#F90362" stop-opacity="0.234"/>
<stop offset="0.517" stop-color="#EA035B" stop-opacity="0.517"/>
<stop offset="0.824" stop-color="#D20250" stop-opacity="0.824"/>
<stop offset="1" stop-color="#C00148"/>
</linearGradient>
<linearGradient id="paint29_linear_2079_3577" x1="22.9358" y1="68.7199" x2="25.8471" y2="71.3887" gradientUnits="userSpaceOnUse">
<stop stop-color="#FE0364" stop-opacity="0"/>
<stop offset="0.234" stop-color="#F90362" stop-opacity="0.234"/>
<stop offset="0.517" stop-color="#EA035B" stop-opacity="0.517"/>
<stop offset="0.824" stop-color="#D20250" stop-opacity="0.824"/>
<stop offset="1" stop-color="#C00148"/>
</linearGradient>
<clipPath id="clip0_2079_3577">
<rect width="80" height="80" fill="white" transform="translate(0.5)"/>
</clipPath>
</defs>
</svg>
