<svg width="31" height="30" viewBox="0 0 31 30" fill="none" xmlns="http://www.w3.org/2000/svg">
<g id="Group">
<path id="Vector" d="M15.5 29.25C23.3701 29.25 29.75 22.8701 29.75 15C29.75 7.12994 23.3701 0.75 15.5 0.75C7.62994 0.75 1.25 7.12994 1.25 15C1.25 22.8701 7.62994 29.25 15.5 29.25Z" fill="#FEDA2C"/>
<path id="Vector_2" d="M15.5001 25.985C21.567 25.985 26.4851 21.0669 26.4851 15C26.4851 8.93317 21.567 4.01501 15.5001 4.01501C9.43329 4.01501 4.51514 8.93317 4.51514 15C4.51514 21.0669 9.43329 25.985 15.5001 25.985Z" fill="#F4B74A"/>
<path id="Star 7 (Stroke)" fill-rule="evenodd" clip-rule="evenodd" d="M22.1234 10.3097L18.8038 13.6318L23.5002 13.6336V16.3669L18.8038 16.3687L22.1234 19.6908L20.1907 21.6235L16.8686 18.3039V13.6318H12.1965L8.87695 10.3097L10.8096 8.37705L14.1317 11.6966L14.1335 7.00024H16.8668L16.8686 11.6966L20.1907 8.37705L22.1234 10.3097Z" fill="#FEDA2C" stroke="#0D1533" stroke-width="0.7" stroke-linejoin="round"/>
<path id="Star 8 (Stroke)" fill-rule="evenodd" clip-rule="evenodd" d="M7.50252 13.6326H16.8709L16.8674 23.0001L14.1341 22.999L14.1359 18.3011L10.8097 21.623L8.87881 19.6875L12.2033 16.3673L7.5 16.363L7.50252 13.6326Z" fill="#FE9901" stroke="#0D1533" stroke-width="0.7" stroke-linejoin="round"/>
<path id="Vector_3" d="M15.5001 0.312501C12.9606 0.311802 10.4644 0.969352 8.25483 2.221C8.15488 2.2788 8.08184 2.37376 8.05161 2.48519C8.02138 2.59662 8.03643 2.71548 8.09346 2.81586C8.1505 2.91624 8.24491 2.99001 8.3561 3.02109C8.4673 3.05216 8.58627 3.03802 8.68708 2.98175C11.686 1.28192 15.2121 0.764743 18.5728 1.5318C21.9335 2.29885 24.886 4.29471 26.8504 7.12737C28.8148 9.96003 29.6492 13.4248 29.1896 16.8412C28.73 20.2576 27.0097 23.3787 24.3666 25.5915C24.3215 25.6281 24.2841 25.6732 24.2566 25.7244C24.2291 25.7755 24.2121 25.8316 24.2065 25.8894C24.201 25.9472 24.207 26.0056 24.2242 26.061C24.2414 26.1165 24.2694 26.168 24.3067 26.2125C24.344 26.257 24.3898 26.2936 24.4414 26.3202C24.493 26.3468 24.5494 26.3629 24.6073 26.3675C24.6651 26.3721 24.7234 26.3652 24.7785 26.3471C24.8337 26.329 24.8847 26.3 24.9286 26.262C27.2407 24.3262 28.901 21.7255 29.6839 18.8134C30.4668 15.9012 30.3343 12.8187 29.3045 9.98442C28.2747 7.15016 26.3975 4.70156 23.9278 2.97119C21.4581 1.24083 18.5156 0.31257 15.5001 0.312501ZM19.6398 28.1815C16.5515 29.1509 13.2209 29.0052 10.2291 27.7696C7.23726 26.5341 4.77429 24.2873 3.26994 21.4212C1.76559 18.5551 1.31539 15.2518 1.99789 12.0877C2.6804 8.92359 4.45228 6.09959 7.00433 4.1085C7.09576 4.03706 7.15507 3.93222 7.16921 3.81705C7.18334 3.70188 7.15115 3.58581 7.0797 3.49438C7.00826 3.40294 6.90342 3.34363 6.78825 3.3295C6.67308 3.31536 6.55701 3.34756 6.46558 3.419C3.75462 5.5374 1.87307 8.54003 1.14895 11.9034C0.424823 15.2669 0.904043 18.7777 2.50307 21.8241C4.1021 24.8704 6.71951 27.2589 9.89903 28.5733C13.0786 29.8877 16.6185 30.0445 19.9018 29.0165C20.0126 28.9818 20.1049 28.9044 20.1587 28.8016C20.2124 28.6987 20.2231 28.5787 20.1883 28.468C20.1536 28.3573 20.0763 28.2649 19.9734 28.2112C19.8706 28.1574 19.7506 28.1468 19.6398 28.1815ZM22.5463 26.8825C22.286 27.0372 22.0207 27.1833 21.7508 27.3205C21.6996 27.3465 21.654 27.3824 21.6167 27.4261C21.5793 27.4698 21.551 27.5204 21.5332 27.575C21.5154 27.6296 21.5085 27.6872 21.513 27.7445C21.5174 27.8018 21.5332 27.8577 21.5592 27.9089C21.5853 27.9601 21.6211 28.0057 21.6648 28.043C21.7085 28.0804 21.7591 28.1087 21.8137 28.1265C21.8683 28.1443 21.9259 28.1512 21.9832 28.1467C22.0405 28.1423 22.0964 28.1266 22.1476 28.1005C22.4345 27.9544 22.7167 27.7991 22.9936 27.6348C23.0933 27.5754 23.1654 27.4789 23.194 27.3665C23.2226 27.254 23.2054 27.1348 23.1461 27.035C23.0868 26.9352 22.9903 26.8631 22.8778 26.8345C22.7653 26.8059 22.6461 26.8232 22.5463 26.8825Z" fill="#0D1533"/>
<path id="Vector_4" d="M15.5001 3.57751C13.241 3.57751 11.0326 4.24743 9.15414 5.50255C7.27572 6.75767 5.81167 8.54163 4.94713 10.6288C4.08259 12.716 3.85638 15.0127 4.29712 17.2284C4.73786 19.4442 5.82575 21.4795 7.42322 23.0769C9.02068 24.6744 11.056 25.7623 13.2717 26.203C15.4875 26.6438 17.7842 26.4176 19.8713 25.553C21.9585 24.6885 23.7425 23.2244 24.9976 21.346C26.2527 19.4676 26.9226 17.2592 26.9226 15C26.9193 11.9716 25.7147 9.06822 23.5733 6.92682C21.4319 4.78541 18.5285 3.58089 15.5001 3.57751ZM15.5001 25.5475C13.414 25.5475 11.3748 24.9289 9.64027 23.7699C7.90574 22.611 6.55384 20.9637 5.75552 19.0364C4.95721 17.1091 4.74833 14.9883 5.15531 12.9423C5.56229 10.8963 6.56684 9.0169 8.04193 7.54181C9.51703 6.06671 11.3964 5.06216 13.4424 4.65518C15.4884 4.2482 17.6092 4.45708 19.5365 5.2554C21.4638 6.05371 23.1111 7.40561 24.2701 9.14014C25.429 10.8747 26.0476 12.9139 26.0476 15C26.0445 17.7964 24.9323 20.4774 22.9549 22.4548C20.9776 24.4322 18.2966 25.5444 15.5001 25.5475Z" fill="#0D1533"/>
</g>
</svg>
